<svg width="184" height="130" viewBox="0 0 184 130" fill="none" xmlns="http://www.w3.org/2000/svg">
<path opacity="0.1" d="M60.3055 129.306C69.4336 129.306 76.8333 128 76.8333 126.389C76.8333 124.778 69.4336 123.472 60.3055 123.472C51.1775 123.472 43.7778 124.778 43.7778 126.389C43.7778 128 51.1775 129.306 60.3055 129.306Z" fill="#F8765E"/>
<path opacity="0.1" d="M149.264 129.306C160.271 129.306 169.194 128 169.194 126.389C169.194 124.778 160.271 123.472 149.264 123.472C138.257 123.472 129.333 124.778 129.333 126.389C129.333 128 138.257 129.306 149.264 129.306Z" fill="#F8765E"/>
<path opacity="0.1" d="M1.35145 54.4445H18.5V77.7259H2.60688C2.56464 77.9649 2.52409 78.2056 2.48016 78.4463H18.5V97.2222C18.4713 97.2138 18.4459 97.2037 18.4189 97.1936C17.9661 97.0152 17.5166 96.8267 17.0672 96.6248L16.7799 96.4952C16.3293 96.2831 15.8787 96.0587 15.4282 95.822C15.271 95.7395 15.1139 95.6536 14.9584 95.5661C12.457 94.1704 10.1846 92.4019 8.22 90.3218C8.16255 90.2662 8.10848 90.2073 8.05103 90.1535C7.7773 89.8573 7.50864 89.5577 7.24843 89.2514L6.96119 88.9148C6.65366 88.5394 6.35628 88.154 6.06735 87.7636C6.0251 87.7063 5.98455 87.6491 5.94062 87.5953C4.76553 85.9724 3.78983 84.2151 3.03437 82.361C3.01072 82.3055 2.99044 82.2449 2.96848 82.1927C2.73643 81.598 2.53085 80.9978 2.35174 80.3919C2.27402 80.1377 2.19967 79.8869 2.13546 79.6227C2.11181 79.5453 2.09153 79.4696 2.07295 79.3938C1.11321 75.6625 1 71.7865 1 67.9374C1 67.488 1 67.037 1 66.591C1 65.0341 1.01859 63.4672 1.04562 61.902C1.04562 61.4964 1.06252 61.0925 1.07097 60.6852C1.09462 59.6518 1.12842 58.6184 1.17235 57.585C1.18249 57.2972 1.196 57.0111 1.21121 56.725C1.21121 56.56 1.21966 56.3951 1.23656 56.2302C1.27711 55.631 1.3109 55.0369 1.35145 54.4445Z" fill="#F8765E"/>
<path opacity="0.1" d="M18.5 29.1667H9.75C11.1724 26.818 12.7265 24.5612 14.404 22.4081C15.7038 20.7234 17.076 19.0819 18.5 17.5V29.1667Z" fill="#F8765E"/>
<path opacity="0.1" d="M18.5 30.1389V54.4445H1C1 54.3743 1.01211 54.3024 1.0173 54.2323C1.03287 54.0401 1.04843 53.8479 1.06573 53.6575C1.08476 53.4336 1.10552 53.208 1.128 52.9891C1.15049 52.7702 1.17471 52.5028 1.20065 52.2605C1.2266 52.0183 1.25082 51.7726 1.28022 51.5303C1.30963 51.2881 1.33557 51.0458 1.36671 50.8052C1.39785 50.5645 1.42552 50.3206 1.45839 50.08C1.48433 49.8795 1.51201 49.6806 1.53969 49.4801C1.57947 49.1977 1.62098 48.9136 1.66596 48.6329C1.66596 48.5912 1.67807 48.5477 1.68499 48.5076C2.0007 46.4526 2.43088 44.4156 2.97366 42.4053C3.54181 40.2966 4.26733 38.2303 5.14451 36.2228C6.07679 34.1227 7.16836 32.092 8.4103 30.1473L18.5 30.1389Z" fill="#F8765E"/>
<path opacity="0.1" d="M23.3611 56.0259V78.9434H59.3791V56.0259H23.3611ZM23.3611 79.6508V99.3313C23.5671 99.3744 23.7715 99.4158 23.9742 99.4506C24.2501 99.5036 24.5242 99.5516 24.805 99.593C24.8582 99.6013 24.913 99.6096 24.9712 99.6146C25.0808 99.6328 25.1938 99.6477 25.3035 99.6626C25.581 99.7007 25.8568 99.7322 26.1343 99.757C26.2655 99.7703 26.3985 99.7819 26.5314 99.7918L26.8521 99.8167C27.0265 99.8299 27.1994 99.8399 27.3705 99.8448C27.4768 99.8448 27.5832 99.8548 27.6928 99.8581C27.7759 99.8581 27.859 99.8581 27.9454 99.8581C28.0318 99.8581 28.1548 99.8581 28.2594 99.8581C28.4023 99.8581 28.5452 99.8581 28.6865 99.8581H28.8775C29.0204 99.8581 29.1633 99.8581 29.3046 99.8448H29.3145C29.4126 99.8448 29.5123 99.8448 29.612 99.8316C29.6396 99.8332 29.6674 99.8332 29.695 99.8316C29.7781 99.8316 29.8612 99.8316 29.9409 99.82H29.9991L30.5557 99.7769C30.7385 99.7604 30.9229 99.7388 31.109 99.7189L31.4879 99.6742C33.0291 99.4589 34.5532 99.1356 36.0489 98.7067C39.4086 97.7724 42.6952 96.4654 46.0532 95.5078C50.3949 94.2737 55.1919 93.6673 59.3874 95.1765V79.6508H23.3611ZM59.3791 30.5125V0.00270919C55.4357 -0.0398861 51.503 0.419955 47.6766 1.37107C38.5562 3.65553 30.373 8.61045 23.3611 14.9387V30.5108H25.1689V31.2182H23.3611V55.3185H59.3791V31.2198H32.5912V30.5125H59.3791ZM105.642 20.2067C103.386 20.1272 101.143 19.4148 99.1139 18.3149C95.2342 16.211 92.1353 12.9624 88.6726 10.2207C81.478 4.51034 72.5553 1.0646 63.4017 0.209785V30.5125H114.819L114.947 30.3783L105.642 20.2067ZM110.326 19.3784L115.293 24.8121V17.9537C113.629 18.1591 112.172 18.6478 110.333 19.3718L110.326 19.3784ZM115.293 104.218V79.6508H104.71C104.682 79.5464 104.654 79.4404 104.62 79.3344C104.652 79.4404 104.679 79.5464 104.708 79.6508H63.4084V97.4179C63.8005 97.7078 64.1877 98.0126 64.5715 98.3224C64.9852 98.6537 65.394 99.0033 65.8044 99.3462L66.2181 99.6875C66.4158 99.8531 66.6152 100.019 66.8163 100.175C67.215 100.497 67.6177 100.815 68.0242 101.129C68.2253 101.294 68.4313 101.443 68.6357 101.599C71.8803 104.072 75.3029 106.304 78.876 108.277C79.6768 108.719 80.4849 109.15 81.3002 109.571C81.8435 109.847 82.3902 110.122 82.9385 110.389C83.7627 110.79 84.5934 111.177 85.4309 111.549C93.1516 115.004 101.316 117.375 109.69 118.594C111.55 118.868 113.417 119.084 115.291 119.24V104.217H115.457L115.293 104.218ZM63.4084 31.2198V55.3185H115.299V31.2198H63.4084ZM63.4084 56.0259V78.9434H115.299V56.0259H63.4084ZM119.327 17.9239V25.5741L125.666 18.6396C123.566 18.3016 121.453 18.0603 119.327 17.9156V17.9239ZM119.327 56.0342V78.9434H169.797V56.0259L119.327 56.0342ZM169.613 106.037L169.791 79.6508H119.327V119.504C122.578 119.64 125.834 119.601 129.08 119.388H129.137C130.688 119.291 132.231 119.149 133.768 118.964H133.803C141.999 118.013 150.014 115.88 157.596 112.634L169.613 106.037ZM179.529 59.7996C179.34 59.354 179.142 58.9117 178.941 58.4744C178.565 57.646 178.168 56.8409 177.76 56.0358H173.822V78.9434H183.778C183.773 72.4561 182.126 65.8297 179.534 59.7914L179.529 59.7996ZM173.822 79.6591V102.355C176.626 99.6742 178.996 96.6078 180.702 93.1024C182.754 88.8814 183.693 84.3108 183.769 79.6558L173.822 79.6591ZM173.822 49.3564V55.3202H177.391C176.311 53.2672 175.121 51.2736 173.827 49.3481L173.822 49.3564ZM139.593 22.4199C139.331 22.3205 139.068 22.2195 138.804 22.1217C136.018 21.0959 133.17 20.2427 130.278 19.5673L120.578 30.1811L120.392 30.3783L120.517 30.5141H155.041C150.233 27.2142 145.049 24.4944 139.598 22.4116L139.593 22.4199ZM156.053 31.2281H120.035L119.327 31.8742V55.3185H125.531H125.541H169.804V43.9625C165.8 39.1344 161.178 34.8504 156.058 31.2198L156.053 31.2281Z" fill="#F8765E"/>
<path opacity="0.1" d="M18.5 41.8055V53.4722H1C1 53.4042 1.01211 53.3346 1.0173 53.2667C1.03287 53.0806 1.04843 52.8945 1.06573 52.71C1.08476 52.4931 1.10552 52.2746 1.128 52.0626C1.15049 51.8506 1.17471 51.5917 1.20065 51.357C1.2266 51.1224 1.25082 50.8845 1.28022 50.6498C1.30963 50.4152 1.33557 50.1805 1.36671 49.9474C1.39785 49.7144 1.42552 49.4781 1.45839 49.2451C1.48433 49.0509 1.51201 48.8583 1.53969 48.6641C1.57947 48.3906 1.62098 48.1155 1.66596 47.8436C1.66596 47.8031 1.67807 47.7611 1.68499 47.7222C2.0007 45.7319 2.43088 43.759 2.97366 41.812L18.5 41.8055Z" fill="#F8765E"/>
<path opacity="0.1" d="M1.35145 54.4445H18.5V77.7259H2.60688C2.56464 77.9649 2.52409 78.2056 2.48016 78.4463H18.5V97.2222C18.4713 97.2138 18.4459 97.2037 18.4189 97.1936C17.9661 97.0152 17.5166 96.8267 17.0672 96.6248L16.7799 96.4952C16.3293 96.2831 15.8787 96.0587 15.4282 95.822C15.271 95.7395 15.1139 95.6536 14.9584 95.5661C12.457 94.1704 10.1846 92.4019 8.22 90.3218C8.16255 90.2662 8.10848 90.2073 8.05103 90.1535C7.7773 89.8573 7.50864 89.5577 7.24843 89.2514L6.96119 88.9148C6.65366 88.5394 6.35628 88.154 6.06735 87.7636C6.0251 87.7063 5.98455 87.6491 5.94062 87.5953C4.76553 85.9724 3.78983 84.2151 3.03437 82.361C3.01072 82.3055 2.99044 82.2449 2.96848 82.1927C2.73643 81.598 2.53085 80.9978 2.35174 80.3919C2.27402 80.1377 2.19967 79.8869 2.13546 79.6227C2.11181 79.5453 2.09153 79.4696 2.07295 79.3938C1.11321 75.6625 1 71.7865 1 67.9374C1 67.488 1 67.037 1 66.591C1 65.0341 1.01859 63.4672 1.04562 61.902C1.04562 61.4964 1.06252 61.0925 1.07097 60.6852C1.09462 59.6518 1.12842 58.6184 1.17235 57.585C1.18249 57.2972 1.196 57.0111 1.21121 56.725C1.21121 56.56 1.21966 56.3951 1.23656 56.2302C1.27711 55.631 1.3109 55.0369 1.35145 54.4445Z" fill="#F8765E"/>
<path opacity="0.1" d="M36 34.1077V54.4444H23.3611V34.1077H25.1631V27.2222H32.56V34.1077H36Z" fill="#F8765E"/>
<path opacity="0.1" d="M36 54.4445H23.3611V77.7778H36V54.4445Z" fill="#F8765E"/>
<path opacity="0.1" d="M23.3611 78.75H36V98.0047C34.5091 98.4378 32.9899 98.7639 31.4536 98.9808L31.076 99.0277C30.8905 99.0495 30.7066 99.0679 30.5244 99.0863C30.3422 99.1047 30.1534 99.1181 29.9696 99.1298H29.9116C29.8321 99.1298 29.746 99.1399 29.6681 99.1416H29.5837C29.4843 99.1416 29.3849 99.1516 29.2855 99.1549C29.1448 99.1633 29.004 99.165 28.8599 99.1667C28.7986 99.1667 28.7406 99.1667 28.6794 99.1667C28.5369 99.1667 28.3961 99.1667 28.2537 99.1667H27.9407C27.8562 99.1667 27.775 99.1667 27.6873 99.1667L27.3676 99.1549C27.202 99.1549 27.0231 99.1365 26.8508 99.1248L26.5328 99.1014L26.137 99.0645C25.8588 99.0394 25.5822 99.0076 25.3089 98.9691L24.9776 98.9222L24.812 98.8988C24.5354 98.8552 24.2621 98.8084 23.9839 98.7548C23.7801 98.7196 23.5781 98.6761 23.3727 98.6342L23.3611 78.75Z" fill="#F8765E"/>
<path opacity="0.1" d="M114.75 31.1111H104.056V54.4444H114.75V31.1111Z" fill="#F8765E"/>
<path opacity="0.1" d="M114.75 54.4445V77.7778H63.2222V67.7135H90.6682V73.6505H104.367V54.4445H114.75Z" fill="#F8765E"/>
<path opacity="0.1" d="M114.75 103.6H114.586V118.611C112.733 118.453 110.885 118.239 109.043 117.968C100.75 116.747 92.6654 114.374 85.0208 110.918C82.8136 109.919 80.6514 108.828 78.5342 107.646C74.9975 105.675 71.6092 103.447 68.3964 100.978C67.5894 100.356 66.7928 99.7199 66.0067 99.0693C65.4623 98.6177 64.9212 98.1545 64.3735 97.7046C63.9936 97.3953 63.6104 97.0909 63.2222 96.7998V79.0659H104.101C104.073 78.9601 104.045 78.8542 104.015 78.75C104.046 78.8542 104.076 78.9601 104.104 79.0659H114.586V103.59C114.641 103.592 114.696 103.597 114.75 103.6Z" fill="#F8765E"/>
<path opacity="0.1" d="M141 29.1667H134.194V27.2119H137.245V21.3889C137.51 21.4779 137.773 21.5695 138.035 21.6636V27.2119H141V29.1667Z" fill="#F8765E"/>
<path opacity="0.1" d="M158.5 54.4361H124.879C124.879 54.4361 124.879 54.4361 124.891 54.4445L124.876 54.4361H118.639V31.1595H120.406V48.3643H128.482V38.1751H135.154V30.1389H142.002V38.1818H148.673V48.371H158.5V54.4361Z" fill="#F8765E"/>
<path opacity="0.1" d="M119.611 55.4167V78.2033H159.33V55.4167H119.611ZM170.112 105.025L170.167 86.9892H159.33V78.9182H119.611V118.532C122.867 118.667 126.129 118.629 129.381 118.417H129.438C130.991 118.32 132.537 118.18 134.076 117.995H134.111C142.322 117.049 150.35 114.929 157.945 111.701L170.112 105.025Z" fill="#F8765E"/>
<path opacity="0.1" d="M175.642 79.7222H183.778C183.706 84.1074 182.882 88.4145 181.078 92.3923C179.577 95.6972 177.492 98.5868 175.028 101.111V87.3733H175.642V79.7222Z" fill="#F8765E"/>
<path opacity="0.1" d="M183.778 78.75H175.028V59.3055H179.763C182.213 65.4361 183.77 72.1637 183.778 78.75Z" fill="#F8765E"/>
<path opacity="0.1" d="M114.75 38.8889H108.917V45.6945H114.75V38.8889Z" fill="#F8765E"/>
<path opacity="0.1" d="M114.75 52.5H108.917V54.4444H114.75V52.5Z" fill="#F8765E"/>
<path opacity="0.1" d="M114.75 54.4445H108.917V60.2778H114.75V54.4445Z" fill="#F8765E"/>
<path opacity="0.1" d="M114.75 68.0555H108.917V74.8611H114.75V68.0555Z" fill="#F8765E"/>
<path opacity="0.1" d="M114.75 83.6111H108.917V90.4166H114.75V83.6111Z" fill="#F8765E"/>
<path opacity="0.1" d="M114.582 103.411C114.639 103.411 114.695 103.411 114.75 103.421H114.582V105H108.917V98.1945H114.582V103.411Z" fill="#F8765E"/>
<path opacity="0.1" d="M114.75 112.778V118.611C112.8 118.446 110.855 118.222 108.917 117.939V112.778H114.75Z" fill="#F8765E"/>
<path opacity="0.1" d="M86.5556 77.7778H62.25V78.7778H86.5556V77.7778Z" fill="#F8765E"/>
<path opacity="0.1" d="M86.5556 78.75H62.25V80.6944H86.5556V78.75Z" fill="#F8765E"/>
<path opacity="0.1" d="M86.5556 87.5H62.25V91.3889H86.5556V87.5Z" fill="#F8765E"/>
<path opacity="0.1" d="M87.5278 97.2222V101.111H68.3479C67.515 100.375 66.6924 99.6182 65.8799 98.8423C65.3181 98.3055 64.7614 97.755 64.1945 97.2222H87.5278Z" fill="#F8765E"/>
<path opacity="0.1" d="M86.5555 106.95V110.833H84.7489C82.7187 109.645 80.7283 108.349 78.7778 106.944L86.5555 106.95Z" fill="#F8765E"/>
<path opacity="0.1" d="M133.222 58.3333H128.361V63.1944H133.222V58.3333Z" fill="#F8765E"/>
<path opacity="0.1" d="M30.1667 35.9722H25.3055V40.8333H30.1667V35.9722Z" fill="#F8765E"/>
<path opacity="0.1" d="M30.1667 46.6667H25.3055V51.5278H30.1667V46.6667Z" fill="#F8765E"/>
<path opacity="0.1" d="M30.1667 58.3333H25.3055V63.1944H30.1667V58.3333Z" fill="#F8765E"/>
<path opacity="0.1" d="M30.1667 68.0555H25.3055V72.9167H30.1667V68.0555Z" fill="#F8765E"/>
<path opacity="0.1" d="M30.1667 78.75H25.3055V83.6111H30.1667V78.75Z" fill="#F8765E"/>
<path opacity="0.1" d="M30.1667 91.3889H25.3055V96.25H30.1667V91.3889Z" fill="#F8765E"/>
<path opacity="0.1" d="M151.694 58.3333H146.833V63.1944H151.694V58.3333Z" fill="#F8765E"/>
<path opacity="0.1" d="M133.222 69.0278H128.361V73.8889H133.222V69.0278Z" fill="#F8765E"/>
<path opacity="0.1" d="M151.694 69.0278H146.833V73.8889H151.694V69.0278Z" fill="#F8765E"/>
<path opacity="0.1" d="M133.222 80.6945H128.361V85.5556H133.222V80.6945Z" fill="#F8765E"/>
<path opacity="0.1" d="M151.694 80.6945H146.833V85.5556H151.694V80.6945Z" fill="#F8765E"/>
<path opacity="0.1" d="M133.222 92.3611H128.361V97.2222H133.222V92.3611Z" fill="#F8765E"/>
<path opacity="0.1" d="M151.694 92.3611H146.833V97.2222H151.694V92.3611Z" fill="#F8765E"/>
<path opacity="0.1" d="M133.222 105H128.361V109.861H133.222V105Z" fill="#F8765E"/>
<path opacity="0.1" d="M151.694 105H146.833V109.861H151.694V105Z" fill="#F8765E"/>
<path opacity="0.1" d="M128.361 119.583V115.694H133.222V119.03L128.361 119.583Z" fill="#F8765E"/>
<path opacity="0.1" d="M2.94446 48.6111V52.5H19.4722V48.6111H2.94446ZM4.59163 52.2562H3.24333V48.8501H4.60182L4.59163 52.2562ZM6.23711 52.2562H4.87861V48.8501H6.23711V52.2562ZM7.87919 52.2562H6.52069V48.8501H7.87919V52.2562ZM9.52466 52.2562H8.16787V48.8501H9.52636L9.52466 52.2562ZM11.1684 52.2562H9.80995V48.8501H11.1684V52.2562ZM12.8139 52.2562H11.4554V48.8501H12.8139V52.2562ZM14.4594 52.2562H13.1009V48.8501H14.4594V52.2562ZM16.1032 52.2562H14.7447V48.8501H16.1032V52.2562ZM17.7469 52.2562H16.3885V48.8501H17.7469V52.2562ZM19.3907 52.2562H18.0322V48.8501H19.3907V52.2562Z" fill="#F8765E"/>
<path opacity="0.1" d="M2.94446 55.4167V59.3056H19.4722V55.4167H2.94446ZM4.59163 59.0594H3.24333V55.6629H4.60182L4.59163 59.0594ZM6.23711 59.0594H4.87861V55.6629H6.23711V59.0594ZM7.87919 59.0594H6.52069V55.6629H7.87919V59.0594ZM9.52466 59.0594H8.16787V55.6629H9.52636L9.52466 59.0594ZM11.1684 59.0594H9.80995V55.6629H11.1684V59.0594ZM12.8139 59.0594H11.4554V55.6629H12.8139V59.0594ZM14.4594 59.0594H13.1009V55.6629H14.4594V59.0594ZM16.1032 59.0594H14.7447V55.6629H16.1032V59.0594ZM17.7469 59.0594H16.3885V55.6629H17.7469V59.0594ZM19.3907 59.0594H18.0322V55.6629H19.3907V59.0594Z" fill="#F8765E"/>
<path opacity="0.1" d="M2.94446 65.1389V69.0278H19.4722V65.1389H2.94446ZM4.59163 68.7749H3.24333V65.3823H4.60182L4.59163 68.7749ZM6.23711 68.7749H4.87861V65.3823H6.23711V68.7749ZM7.87919 68.7749H6.52069V65.3823H7.87919V68.7749ZM9.52466 68.7749H8.16787V65.3823H9.52636L9.52466 68.7749ZM11.1684 68.7749H9.80995V65.3823H11.1684V68.7749ZM12.8139 68.7749H11.4554V65.3823H12.8139V68.7749ZM14.4594 68.7749H13.1009V65.3823H14.4594V68.7749ZM16.1032 68.7749H14.7447V65.3823H16.1032V68.7749ZM17.7469 68.7749H16.3885V65.3823H17.7469V68.7749ZM19.3907 68.7749H18.0322V65.3823H19.3907V68.7749Z" fill="#F8765E"/>
<path opacity="0.1" d="M2.94446 71.9445V75.8334H19.4722V71.9445H2.94446ZM4.59163 75.5916H3.24333V72.1862H4.60182L4.59163 75.5916ZM6.23711 75.5916H4.87861V72.1862H6.23711V75.5916ZM7.87919 75.5916H6.52069V72.1862H7.87919V75.5916ZM9.52466 75.5916H8.16787V72.1862H9.52636L9.52466 75.5916ZM11.1684 75.5916H9.80995V72.1862H11.1684V75.5916ZM12.8139 75.5916H11.4554V72.1862H12.8139V75.5916ZM14.4594 75.5916H13.1009V72.1862H14.4594V75.5916ZM16.1032 75.5916H14.7447V72.1862H16.1032V75.5916ZM17.7469 75.5916H16.3885V72.1862H17.7469V75.5916ZM19.3907 75.5916H18.0322V72.1862H19.3907V75.5916Z" fill="#F8765E"/>
<path opacity="0.1" d="M2.94446 78.75C3.01097 79.1164 3.08601 79.4828 3.16446 79.8444V78.9943H4.52885V82.3994H3.7989C3.82107 82.4785 3.84324 82.5647 3.86542 82.6389H19.4722V78.75H2.94446ZM6.18486 82.3994H4.82048V78.9943H6.18486V82.3994ZM7.83406 82.3994H6.46968V78.9943H7.83406V82.3994ZM9.48667 82.3994H8.11887V78.9943H9.48326L9.48667 82.3994ZM11.1376 82.3994H9.77319V78.9943H11.1376V82.3994ZM12.7902 82.3994H11.4258V78.9943H12.7902V82.3994ZM14.4428 82.3994H13.0784V78.9943H14.4428V82.3994ZM16.0937 82.3994H14.7293V78.9943H16.0937V82.3994ZM17.7446 82.3994H16.3802V78.9943H17.7446V82.3994ZM19.3955 82.3994H18.0311V78.9943H19.3955V82.3994Z" fill="#F8765E"/>
<path opacity="0.1" d="M5.86111 87.5C5.90362 87.5767 5.94442 87.6629 5.98863 87.7396H6.888V89.3762C6.98491 89.5391 7.08012 89.702 7.17873 89.8554V87.73H8.53885V91.1493H7.988C8.0424 91.2283 8.09511 91.3122 8.15801 91.3889H18.5V87.5H5.86111ZM10.1812 91.1493H8.82107V87.7444H10.1812V91.1493ZM11.8286 91.1493H10.4685V87.7444H11.8286V91.1493ZM13.4761 91.1493H12.116V87.7444H13.4761V91.1493ZM15.1218 91.1493H13.7617V87.7444H15.1218V91.1493ZM16.7676 91.1493H15.4074V87.7444H16.7676V91.1493ZM18.4133 91.1493H17.0532V87.7444H18.4133V91.1493Z" fill="#F8765E"/>
<path opacity="0.1" d="M15.5833 95.2778C15.7522 95.3804 15.9247 95.4752 16.0991 95.5778V95.4791H17.5835V96.3674L17.8989 96.5234V95.4791H19.3832V97.1867C19.4116 97.2017 19.4415 97.2136 19.4722 97.2222V95.2778H15.5833Z" fill="#F8765E"/>
<path opacity="0.1" d="M114.584 104.028H114.75H114.584ZM103.89 78.76C103.921 78.8677 103.948 78.9754 103.978 79.0814C103.951 78.9754 103.923 78.8677 103.89 78.76ZM24.3333 29.1667V29.8852H31.766V29.1667H24.3333ZM114.584 104.028H114.75H114.584ZM103.89 78.76C103.921 78.8677 103.948 78.9754 103.978 79.0814C103.951 78.9754 103.923 78.8677 103.89 78.76ZM114.584 104.023H114.75H114.584ZM103.89 78.76C103.921 78.8677 103.948 78.9754 103.978 79.0814C103.951 78.9754 103.923 78.8677 103.89 78.76Z" fill="#F8765E"/>
<path d="M77.3555 61.7998C77.3555 61.7998 76.6991 61.7085 76.6991 60.7563C76.6991 59.804 76.2293 58.0255 76.2293 58.0255C76.2293 58.0172 75.8228 54.9281 75.2614 54.437C74.6999 53.946 73.9785 51.0626 73.9785 51.0626C73.9785 51.0626 73.8553 49.4981 73.6037 49.1613C73.3521 48.8245 73.0123 48 72.5108 46.8237C72.0093 45.6475 69.9185 44.8329 69.9185 44.8329C69.9185 44.8329 66.1384 42.6496 65.0672 41.9379C64.9698 41.8794 64.8788 41.811 64.7956 41.7339C64.609 41.49 63.796 41.485 63.796 41.485C63.7111 40.9508 63.6294 40.337 63.6028 39.7812C63.6028 39.7215 63.6028 39.6617 63.5945 39.602C64.7889 38.8989 65.6887 37.7903 66.1284 36.4797C66.1484 36.4167 66.1651 36.3503 66.1834 36.2873C66.3281 36.2398 66.4461 36.1338 66.5083 35.9953C66.6049 35.7813 66.6066 35.5307 66.7265 35.3317C66.8665 35.0961 67.133 34.97 67.3429 34.7925C67.8727 34.3445 68.0093 33.5897 67.9843 32.9028C67.9677 32.3471 67.8777 31.7863 67.9127 31.2339L67.9227 31.0945C67.9327 31.0116 67.9443 30.9286 67.9593 30.849C68.041 30.4375 68.2192 30.0493 68.3192 29.6412C68.4191 29.2331 68.4291 28.7735 68.1959 28.4218C67.8544 27.9059 67.143 27.803 66.5183 27.7499C65.8102 27.6902 65.1771 27.7682 64.724 27.1825C64.5119 26.8764 64.2733 26.5894 64.0109 26.3248C63.9177 26.2385 63.0114 25.6877 63.0114 25.6512C62.1268 25.2433 61.1242 25.1667 60.1875 25.4356C59.7177 25.5716 59.2746 25.7939 58.7981 25.9051C57.7702 26.1473 56.5873 25.8852 55.7143 26.4708C55.2279 26.8026 54.9363 27.3302 54.6631 27.8445C54.441 28.2681 54.2155 28.6911 53.9867 29.1136C53.6185 29.8088 53.2437 30.5155 53.0887 31.2853C53.0562 31.4528 53.0361 31.6225 53.0288 31.793V31.8013C53.0288 31.8626 53.0288 31.924 53.0288 31.9854V32.0634C53.0288 32.1214 53.0288 32.1779 53.0388 32.2293C53.0488 32.2807 53.0471 32.2973 53.0521 32.3321C53.0571 32.367 53.0654 32.445 53.0754 32.498C53.0854 32.5511 53.1054 32.644 53.1254 32.717C53.1337 32.7486 53.1454 32.7784 53.1554 32.8083C53.172 32.8647 53.192 32.9194 53.2137 32.9742C53.2254 33.0024 53.237 33.0323 53.2503 33.0605C53.2753 33.1185 53.3053 33.1749 53.3353 33.2264C53.3486 33.2496 53.3586 33.2712 53.372 33.2927C53.4184 33.3699 53.4696 33.4441 53.5252 33.515C53.8818 33.958 54.4065 34.24 54.7947 34.6548C54.7947 34.6714 54.7947 34.688 54.7947 34.7029C54.7947 34.7493 54.7947 34.7941 54.7947 34.8406C54.8365 36.7186 55.8082 38.4545 57.3903 39.4776C57.3903 39.5406 57.3987 39.6053 57.402 39.6684C57.4345 40.1608 57.4283 40.655 57.3837 41.1466C57.2462 40.9854 57.0428 40.8951 56.8306 40.901C56.759 40.8975 56.6872 40.9037 56.6173 40.9193L56.6023 40.9077V40.9226C56.2358 41.0122 55.7843 41.3921 55.3528 42.4721C55.3528 42.4721 54.04 43.9453 53.0404 43.884C52.0408 43.8226 49.5102 45.4169 49.5102 45.4169C49.5102 45.4169 47.0412 47.0129 46.5114 48.6387C46.2153 49.5607 45.8603 50.4628 45.4485 51.3396L42.3964 57.6025L41.8333 62.5712C41.8333 62.5712 42.1449 64.7811 42.0832 65.1179C42.0216 65.4546 43.3644 68.4923 43.3644 68.4923C43.3644 68.4923 47.8009 76.2549 49.6135 76.6531L49.7434 76.5618C49.821 76.6022 49.9032 76.6328 49.9883 76.6531L50.3615 76.3909C50.3839 76.6831 50.3744 76.9768 50.3332 77.2669C50.0833 78.0334 50.4265 83.0354 50.863 84.0158C51.2995 84.9963 51.1445 97.8521 51.1445 97.8521L51.0829 98.9869C51.0829 98.9869 51.0829 99.0234 51.0979 99.0864L51.0829 99.3552L51.1279 99.3784C51.1746 99.7384 51.1594 100.104 51.0829 100.458C50.9263 100.956 50.863 102.363 50.863 102.363C50.863 102.363 49.6152 110.306 50.2066 111.902C50.798 113.498 51.3011 115.247 51.3011 115.247C51.3011 115.247 51.9259 117.238 51.3311 117.578C50.7364 117.918 49.0454 118.489 49.3936 119.318C49.7101 120.085 50.9113 122.139 51.0896 122.439L51.0746 122.597L50.8297 125.239C50.8693 125.588 50.9644 125.929 51.1112 126.248C51.3794 126.824 51.9009 127.421 52.8922 127.356C53.0588 127.345 53.252 127.325 53.4386 127.3C55.2529 127.058 57.4869 126.251 57.4869 126.251C57.371 126.178 57.2646 126.09 57.1704 125.991C56.9902 125.817 56.8896 125.577 56.8922 125.327C56.9188 124.846 56.0142 122.553 55.7893 121.989C55.7543 121.908 55.736 121.862 55.736 121.862C55.736 121.862 57.7985 119.715 57.4553 117.812C57.4553 117.812 55.1729 116.485 55.9243 115.756C56.6756 115.028 58.0184 112.936 58.0184 112.936C58.0184 112.936 58.08 105.114 58.0184 103.946C57.9541 103.135 57.9927 102.32 58.1333 101.519C58.1583 101.397 58.1883 101.28 58.22 101.164C59.2591 101.318 60.3081 101.397 61.3587 101.401C61.7419 101.401 62.1317 101.401 62.5249 101.378C62.5249 101.488 62.5299 101.608 62.5399 101.736C62.6265 103.674 62.7881 107.071 62.9197 108.334C63.1063 110.144 64.1376 115.021 64.1376 115.021C64.1376 115.021 62.17 116.279 64.4808 119.378C64.4808 119.378 64.4808 120.501 64.3275 120.664C64.1639 121.195 64.032 121.736 63.9326 122.283C63.836 122.867 63.796 123.458 63.9526 123.764C64.3275 124.498 66.5766 124.438 66.5766 124.438L66.6315 124.428C67.4892 124.34 68.3466 124.597 69.0122 125.143C69.8669 125.827 73.1106 125.526 74.8665 125.309C75.5546 125.223 76.0144 125.143 76.0144 125.143C76.0367 125.066 76.0446 124.985 76.0377 124.904C76.0194 124.475 75.6812 123.532 73.3888 122.691C73.3888 122.691 71.233 121.248 71.263 119.99H71.218H70.9681C71.1497 119.98 71.2663 119.99 71.2663 119.99C71.2663 119.99 70.4217 116.921 70.7665 116.672C71.1114 116.423 70.0785 113.022 70.0785 113.022C70.0785 113.022 69.487 107.315 69.4554 106.915C69.4567 106.572 69.5089 106.231 69.6103 105.903L69.4554 102.774C69.4554 102.774 69.4254 101.734 69.4554 101.396C69.4503 101.102 69.4264 100.809 69.3838 100.518C69.3688 100.402 69.3538 100.281 69.3371 100.161C70.1451 99.9574 70.6699 99.7683 70.6699 99.7683L70.5766 88.8768C71.263 87.5496 71.3896 84.638 71.3863 82.5725C71.3863 81.2453 71.3263 80.2631 71.3263 80.2631L72.2642 78.7385C72.2642 78.7385 72.4808 76.9135 72.1376 76.5137C71.986 76.3329 72.0543 76.1454 72.1793 75.9911C72.2442 75.9399 72.3126 75.8933 72.3842 75.8518C72.3842 75.8518 72.3742 75.8368 72.3625 75.8153C72.428 75.7608 72.4977 75.7114 72.5708 75.6676C72.5708 75.6676 72.2376 75.1533 72.5358 74.936C72.8157 75.1251 73.0656 75.2678 73.2555 75.3839C73.2422 75.505 73.2289 75.5747 73.2289 75.5747L73.3088 75.4088C73.4921 75.5117 73.6037 75.5747 73.6037 75.5747C73.6037 75.5747 75.0731 72.6598 75.0414 72.2301C75.0098 71.8004 76.041 69.9904 76.041 69.9904C76.041 69.9904 76.166 69.0398 76.7291 68.6416C77.2922 68.2435 77.1656 65.3584 77.1656 65.3584C77.1656 65.3584 77.3222 63.8553 77.697 63.2415C78.0719 62.6277 77.3555 61.7998 77.3555 61.7998ZM49.2403 60.5207L49.2686 61.2158C49.102 60.9487 48.9821 60.7563 48.9821 60.7563L49.2403 60.5207Z" fill="url(#paint0_linear_4_701)"/>
<path d="M72.9445 75.0434L72.4934 76.8056C72.4934 76.8056 68.8808 75.1142 68.2293 72.9651C67.5777 70.816 69.3193 70 69.3193 70L72.6855 71.3083L72.9445 75.0434Z" fill="white"/>
<path opacity="0.1" d="M72.9445 75.0434L72.4934 76.8056C72.4934 76.8056 68.8808 75.1142 68.2293 72.9651C67.5777 70.816 69.3193 70 69.3193 70L72.6855 71.3083L72.9445 75.0434Z" fill="black"/>
<path d="M56.4167 127.283C56.4167 127.283 53.6346 128.212 51.722 128.329C50.7065 128.39 50.1727 127.825 49.898 127.28C49.7479 126.977 49.6511 126.654 49.6111 126.324L49.8598 123.82L49.9919 122.487L54.0554 121.528L54.631 123.126L54.6849 123.248C54.9161 123.782 55.8429 125.954 55.8151 126.408C55.8128 126.642 55.9157 126.868 56.1002 127.032C56.1935 127.127 56.2999 127.212 56.4167 127.283Z" fill="white"/>
<path d="M74.8867 125.696C74.8932 125.78 74.8855 125.864 74.8639 125.945C74.8639 125.945 69.3066 126.943 68.1697 125.945C67.5216 125.356 66.6724 125.088 65.8312 125.208C65.8312 125.208 63.681 125.271 63.3221 124.509C63.1727 124.19 63.2116 123.569 63.3042 122.958C63.3986 122.385 63.5245 121.818 63.681 121.261L63.767 121.188L64.2786 120.746L70.268 120.556H70.3134C70.2842 121.873 72.3467 123.384 72.3467 123.384C74.5375 124.258 74.8607 125.245 74.8867 125.696Z" fill="white"/>
<path opacity="0.1" d="M74.8872 125.603C74.8928 125.699 74.8846 125.794 74.8628 125.886C74.8628 125.886 69.3064 127.017 68.1695 125.886C67.5217 125.219 66.6731 124.915 65.8322 125.051C65.8322 125.051 63.6802 125.122 63.3229 124.259C63.1734 123.894 63.2108 123.193 63.3034 122.5C64.1317 122.601 65.4392 122.852 65.9524 123.453C66.7288 124.365 68.0444 125.276 68.8516 125.348C69.4834 125.397 73.263 125.544 74.8872 125.603Z" fill="black"/>
<path opacity="0.1" d="M56.4167 127.544C56.4167 127.544 53.5114 128.242 51.5141 128.33C50.4536 128.376 49.8962 127.951 49.6111 127.54C50.3501 127.703 51.3761 127.874 51.9153 127.717C52.5545 127.532 54.8206 127.412 56.0916 127.361C56.1884 127.43 56.2975 127.492 56.4167 127.544Z" fill="black"/>
<path d="M60.779 49.3792C58.6145 48.4823 55.8301 45.5188 56.5254 44.134C56.6798 43.7846 56.7716 43.4075 56.7959 43.0221C56.8407 42.4989 56.8472 41.9728 56.8156 41.4485C56.7669 40.5899 56.67 39.7352 56.5254 38.8889C56.5254 38.8889 63.2829 39.0515 62.8894 40.1128C62.7746 40.424 62.7565 40.9642 62.7877 41.5692C62.8189 42.1741 62.9008 42.8577 62.9861 43.4364C63.1042 44.2302 63.2222 44.8351 63.2222 44.8351C63.2222 44.8351 62.809 45.4523 62.5663 45.4855C62.3236 45.5188 63.8847 50.6572 60.779 49.3792Z" fill="#CF6F80"/>
<path opacity="0.1" d="M55.4445 122.949L55.3902 122.993C53.232 121.049 50.6219 123.472 50.6219 123.472L50.5833 123.421L50.7165 122.32L54.8103 121.528L55.3902 122.848L55.4445 122.949Z" fill="black"/>
<path opacity="0.1" d="M70.0278 121.674C70.0278 121.674 68.5277 121.649 67.7277 122.217C66.9276 122.786 63.0608 122.341 63.2275 122.217C63.2768 122.156 63.3066 122.086 63.3141 122.013L63.8392 121.674L69.9861 121.528C70.0094 121.618 70.0278 121.674 70.0278 121.674Z" fill="black"/>
<path d="M56.4016 100.538C56.3039 100.816 56.2298 101.105 56.1801 101.399C56.0585 102.206 56.0248 103.027 56.0795 103.844C56.1335 105.019 56.0795 112.895 56.0795 112.895C56.0795 112.895 54.9266 114.995 54.2838 115.736C53.641 116.476 55.5956 117.806 55.5956 117.806C55.8871 119.72 54.1206 121.882 54.1206 121.882C52.3248 119.381 50.1531 122.5 50.1531 122.5C50.1531 122.5 48.9724 120.15 48.678 119.31C48.3836 118.471 49.8309 117.89 50.3396 117.549C50.8483 117.208 50.3149 115.198 50.3149 115.198C50.3149 115.198 49.8849 113.437 49.3747 111.83C48.8646 110.224 49.9373 102.225 49.9373 102.225C49.9373 102.225 49.9927 100.805 50.1254 100.31C50.1923 99.9524 50.2056 99.5844 50.1647 99.2218C50.156 99.0993 50.1458 98.9968 50.1385 98.928C50.1312 98.8592 50.1254 98.8273 50.1254 98.8273L50.1458 98.787L50.8746 97.2222C50.8746 97.2222 56.7515 99.5526 56.4016 100.538Z" fill="#9BDBE7"/>
<path d="M69.0555 120.542C69.0555 120.542 67.7 120.511 66.9771 121.19C66.2541 121.869 62.7598 121.339 62.9104 121.19C63.0611 121.041 63.049 119.937 63.049 119.937C60.9991 116.926 62.7478 115.704 62.7478 115.704C62.7478 115.704 61.832 110.963 61.6664 109.204C61.5504 107.976 61.4073 104.674 61.3305 102.789C61.2974 101.979 61.2778 101.421 61.2778 101.421L62.9526 101.058L63.168 101.011L67.2075 100.139C67.2075 100.139 67.319 100.949 67.3943 101.612C67.4318 101.895 67.4529 102.181 67.4575 102.466C67.4304 102.791 67.4575 103.805 67.4575 103.805L67.5946 106.847C67.505 107.167 67.4589 107.498 67.4575 107.831C67.4846 108.219 68.0103 113.765 68.0103 113.765C68.0103 113.765 68.9245 117.075 68.6127 117.313C68.301 117.551 69.0555 120.542 69.0555 120.542Z" fill="#9BDBE7"/>
<path opacity="0.1" d="M62.2324 38.2895C62.1099 38.6315 62.0907 39.2252 62.1239 39.8901C60.1538 41.1934 57.6785 41.1426 55.754 39.7594C55.7021 38.8151 55.5987 37.8751 55.4445 36.9445C55.4445 36.9445 62.6521 37.1193 62.2324 38.2895Z" fill="black"/>
<path d="M66.1363 35.0502C66.1377 35.6593 66.041 36.2647 65.85 36.8437C64.9682 39.5218 62.269 41.1805 59.4581 40.7717C56.6471 40.3628 54.5421 38.0052 54.4731 35.1888C54.4731 35.1414 54.4731 35.0975 54.4731 35.0502C54.4371 32.9603 55.5408 31.0136 57.3602 29.9582C59.1795 28.9028 61.4316 28.9028 63.251 29.9582C65.0704 31.0136 66.1741 32.9603 66.138 35.0502H66.1363Z" fill="#CF6F80"/>
<path opacity="0.1" d="M60.779 48.3993C58.6145 47.469 55.8301 44.3952 56.5254 42.9589C56.6798 42.5965 56.7716 42.2053 56.7959 41.8055L59.759 44.4985L61.5923 46.1615L62.9861 42.2371C63.1042 43.0605 63.2222 43.6879 63.2222 43.6879C63.2222 43.6879 62.809 44.3281 62.5663 44.3625C62.3236 44.397 63.8847 49.7249 60.779 48.3993Z" fill="black"/>
<path d="M68.0833 58.9467L65.5164 100.898L62.1687 101.111L53.5 76.7862L54.9221 47.907L55.2215 41.8055L59.0761 44.8853L60.9796 46.4028L62.4681 42.7174L65.2357 45.064L68.0833 58.9467Z" fill="#9BDBE7"/>
<path opacity="0.1" d="M57.3726 101.078C57.2669 101.403 57.1867 101.739 57.1329 102.083C54.8745 101.65 52.6812 100.798 50.6259 99.5567L50.5833 99.5293L50.5975 99.2137L50.6054 99.0491L51.394 97.2222C51.394 97.2222 57.7511 99.9272 57.3726 101.078Z" fill="black"/>
<path opacity="0.1" d="M63.2222 102.826C62.5984 102.939 61.9691 103.016 61.3374 103.056C61.2999 102.145 61.2778 101.519 61.2778 101.519L63.1728 101.111L63.2222 102.826Z" fill="black"/>
<path opacity="0.1" d="M68.0833 100.624C66.8516 100.921 64.9494 101.255 63.2465 101.046L63.2222 100.029L67.8685 99.1667C67.8685 99.1667 67.9967 99.9604 68.0833 100.624Z" fill="black"/>
<path opacity="0.1" d="M63.2222 101.833C56.7662 103.015 50.8535 99.6269 50.8535 99.6269L50.9102 98.479C50.9102 98.479 51.0566 85.466 50.6504 84.4683C50.2441 83.4707 49.9276 78.4117 50.1575 77.6352C50.3874 76.8587 49.3182 65.2146 49.3182 65.2146L49.145 60.4881L42.8055 57.735L45.6399 51.4015C46.0227 50.5135 46.352 49.6001 46.6256 48.6668C47.1185 47.0227 49.4064 45.4073 49.4064 45.4073C49.4064 45.4073 51.7526 43.7935 52.6801 43.8543C53.6075 43.915 54.8231 42.4262 54.8231 42.4262C55.7207 39.9735 56.5332 41.0842 56.5332 41.0842C56.5332 41.2007 56.5332 41.0842 56.4891 41.4471C56.1742 44.1395 61.5814 52.6472 61.6586 52.7975L62.1735 66.2443L62.6947 83.2614L63.2222 101.833Z" fill="black"/>
<path d="M63.2222 101.833C56.7677 103.015 50.8548 99.6273 50.8548 99.6273L50.913 98.4796C50.913 98.4796 51.0594 85.4687 50.6517 84.4713C50.244 83.4738 49.9291 78.4156 50.1605 77.6392C50.3919 76.8629 49.3214 65.2207 49.3214 65.2207L49.1467 60.495L42.8055 57.7322L45.6392 51.3997C46.0211 50.5115 46.3503 49.5983 46.6247 48.6655C47.1159 47.0217 49.4049 45.4065 49.4049 45.4065C49.4049 45.4065 51.7505 43.793 52.6762 43.8538C53.6019 43.9145 54.8188 42.4259 54.8188 42.4259C55.7177 39.9736 56.7079 41.0842 56.7079 41.0842C56.7079 41.2006 56.6134 41.2529 56.6638 41.447C57.3565 44.058 61.5818 52.6453 61.659 52.7955L62.18 66.2401L62.7011 83.2544L63.2222 101.833Z" fill="white"/>
<path opacity="0.1" d="M61.2778 53.4722C60.4832 53.1691 56.2741 48.7762 56.2741 48.7762V47.7764C56.1209 47.447 55.211 47.6479 54.4722 47.8785L54.7894 41.8055L55.1497 42.079C55.9389 44.6254 61.1859 53.3256 61.2778 53.4722Z" fill="black"/>
<path d="M61.2778 53.4722C60.4816 53.1691 56.2736 48.7762 56.2736 48.7762V47.7764C56.1205 47.447 55.2108 47.6479 54.4722 47.8785L54.7911 41.8055L55.1513 42.079C55.9421 44.6254 61.1895 53.3273 61.2778 53.4722Z" fill="white"/>
<path opacity="0.1" d="M50.9117 76.2895C50.992 76.2895 55.0725 75.8333 55.0725 75.8333C55.0725 75.8333 57.5433 80.9989 57.3813 82.2558C57.2193 83.5126 56.9259 84.6252 55.9321 84.4281C54.9382 84.2311 50.5833 84.5833 50.5833 84.5833L50.9117 76.2895Z" fill="black"/>
<path d="M49.9395 76.2895C50.0198 76.2895 54.1003 75.8333 54.1003 75.8333C54.1003 75.8333 56.5697 81.0005 56.4092 82.2558C56.2486 83.5111 55.9524 84.6252 54.9599 84.4281C53.9675 84.2311 49.6111 84.5833 49.6111 84.5833L49.9395 76.2895Z" fill="white"/>
<path d="M53.0898 72.9167C53.0898 72.9167 57.2961 75.67 57.3862 76.5106C57.4764 77.3511 55.2454 76.1432 54.7634 75.9974C54.4462 75.9043 54.1233 75.8429 53.7979 75.8138L50.5833 75.9196L53.0898 72.9167Z" fill="#CF6F80"/>
<path opacity="0.1" d="M60.7917 53.9861C61.3439 53.9861 61.7917 53.5384 61.7917 52.9861C61.7917 52.4338 61.3439 51.9861 60.7917 51.9861C60.2394 51.9861 59.7917 52.4338 59.7917 52.9861C59.7917 53.5384 60.2394 53.9861 60.7917 53.9861Z" fill="black"/>
<path d="M60.7917 53.9861C61.3439 53.9861 61.7917 53.5384 61.7917 52.9861C61.7917 52.4338 61.3439 51.9861 60.7917 51.9861C60.2394 51.9861 59.7917 52.4338 59.7917 52.9861C59.7917 53.5384 60.2394 53.9861 60.7917 53.9861Z" fill="#3F3D56"/>
<path opacity="0.1" d="M60.7917 74.4028C61.3439 74.4028 61.7917 73.9551 61.7917 73.4028C61.7917 72.8505 61.3439 72.4028 60.7917 72.4028C60.2394 72.4028 59.7917 72.8505 59.7917 73.4028C59.7917 73.9551 60.2394 74.4028 60.7917 74.4028Z" fill="black"/>
<path d="M60.7917 73.4305C61.3439 73.4305 61.7917 72.9828 61.7917 72.4305C61.7917 71.8783 61.3439 71.4305 60.7917 71.4305C60.2394 71.4305 59.7917 71.8783 59.7917 72.4305C59.7917 72.9828 60.2394 73.4305 60.7917 73.4305Z" fill="#3F3D56"/>
<path opacity="0.1" d="M60.7917 64.6805C61.3439 64.6805 61.7917 64.2328 61.7917 63.6805C61.7917 63.1283 61.3439 62.6805 60.7917 62.6805C60.2394 62.6805 59.7917 63.1283 59.7917 63.6805C59.7917 64.2328 60.2394 64.6805 60.7917 64.6805Z" fill="black"/>
<path d="M60.7917 64.6805C61.3439 64.6805 61.7917 64.2328 61.7917 63.6805C61.7917 63.1283 61.3439 62.6805 60.7917 62.6805C60.2394 62.6805 59.7917 63.1283 59.7917 63.6805C59.7917 64.2328 60.2394 64.6805 60.7917 64.6805Z" fill="#3F3D56"/>
<path d="M71.3743 74.617C71.3743 74.617 71.6721 75.0787 71.3743 75.2945C71.0766 75.5103 71.4035 76.0322 71.4035 76.0322C71.4035 76.0322 70.6607 76.4822 70.9876 76.887C71.3145 77.2919 71.1073 79.1203 71.1073 79.1203L70.2141 80.6493C70.2141 80.6493 70.2675 81.6346 70.2708 82.9662C70.2708 85.0438 70.1527 87.9646 69.4989 89.2962L69.5895 100.222C69.5895 100.222 66.4617 101.403 63.8436 101.043L63.4552 83.5115C63.4552 83.5115 64.0216 73.5698 64.2303 71.6628C64.3525 70.6727 64.4022 69.6745 64.3792 68.6767C64.3792 68.6767 64.2902 65.6924 63.9908 64.3072C63.9908 64.3072 63.6672 58.3067 63.6348 56.6456C63.6203 55.851 63.6607 53.5324 63.706 51.3276C63.7562 48.9171 63.8128 46.6437 63.8128 46.6437L63.2222 41.8125C63.2222 41.8125 63.8128 41.7506 63.9908 41.9965C64.0706 42.0735 64.1573 42.1424 64.2497 42.2023C65.2692 42.9149 68.8711 45.1063 68.8711 45.1063C68.8711 45.1063 70.8646 45.926 71.342 47.1003C71.8193 48.2747 72.151 49.1078 72.3824 49.4423C72.6138 49.7769 72.74 51.3494 72.74 51.3494C72.74 51.3494 73.4261 54.2434 73.9617 54.7335C74.4973 55.2237 74.8889 58.3419 74.8889 58.3419L70.1559 62.1894C70.1559 62.1894 69.74 68.5897 69.651 68.8373C69.562 69.0849 71.3743 74.617 71.3743 74.617Z" fill="white"/>
<path d="M71.1464 74.638C71.1464 74.638 71.4622 75.0993 71.1464 75.3148C70.8306 75.5304 71.1757 76.0518 71.1757 76.0518C71.1757 76.0518 70.3889 76.5064 70.734 76.9108C71.0791 77.3153 70.8617 79.1419 70.8617 79.1419L69.9093 80.6694C69.9093 80.6694 69.9662 81.6537 69.9714 82.984C69.9714 85.0596 69.8454 87.9775 69.1483 89.3078L69.2432 100.222C69.2432 100.222 65.9028 101.402 63.1144 101.043L62.7021 83.5288C62.7021 83.5288 63.306 73.5968 63.5286 71.6917C63.659 70.7026 63.7114 69.7054 63.6856 68.7086C63.6856 68.7086 63.5907 65.7271 63.2732 64.3434C63.2732 64.3434 62.9281 58.3488 62.8919 56.6893C62.8763 55.8955 62.9212 53.5792 62.9678 51.3765C63.0213 48.9683 63.0817 46.6972 63.0817 46.6972L62.25 41.8055C62.25 41.8055 63.0817 41.8055 63.2732 42.0546C63.3574 42.1324 63.45 42.2013 63.5493 42.2601C64.6363 42.972 68.4789 45.1613 68.4789 45.1613C68.4789 45.1613 70.6029 45.9802 71.1119 47.1534C71.6209 48.3266 71.9746 49.1588 72.2231 49.4931C72.4715 49.8273 72.6027 51.3983 72.6027 51.3983C72.6027 51.3983 73.3343 54.2894 73.9054 54.7791C74.4765 55.2688 74.8889 58.3772 74.8889 58.3772L69.842 62.221C69.842 62.221 69.3985 68.615 69.3019 68.8623C69.2053 69.1097 71.1464 74.638 71.1464 74.638Z" fill="white"/>
<path opacity="0.1" d="M66.3213 48.2123L66.8519 49.3888L64.0583 51.5278C64.1206 49.3277 64.1909 47.2498 64.1909 47.2498L63.2222 42.7778C63.2222 42.7778 64.1909 42.7778 64.414 43.0054C64.5118 43.0764 64.6197 43.1389 64.7356 43.1918L67.1111 48.4018L66.3213 48.2123Z" fill="black"/>
<path d="M65.3475 48.2123L65.8798 49.3888L63.0876 51.5278C63.1499 49.3261 63.2202 47.2498 63.2202 47.2498L62.25 42.7778C62.25 42.7778 63.2202 42.7778 63.4412 43.0054C63.5397 43.0761 63.6474 43.1391 63.7626 43.1933L66.1389 48.4018L65.3475 48.2123Z" fill="white"/>
<path opacity="0.1" d="M66.1363 34.1963C66.1377 34.717 66.041 35.2346 65.85 35.7295C65.7849 35.7381 65.7185 35.724 65.6659 35.6905C65.6215 34.3899 64.8664 33.1688 63.9373 32.1298C63.6765 31.8161 63.3603 31.5383 62.9998 31.3061C62.6353 31.0741 62.182 30.9654 61.7281 31.0012C61.2167 31.0604 60.765 31.3552 60.2485 31.3928C59.5666 31.4405 58.9563 31.0402 58.2796 31.02C57.723 31.0245 57.1957 31.2319 56.8323 31.5893C56.4768 31.9459 56.2127 32.3612 56.0567 32.809C55.7887 33.4879 55.6427 34.1972 55.6237 34.913C55.6152 35.3176 55.5692 35.8248 55.126 35.9722C55.1934 35.3706 54.9603 34.7726 54.4833 34.3234L54.4731 34.3147C54.4731 34.2743 54.4731 34.2367 54.4731 34.1963C54.4371 32.4097 55.5408 30.7456 57.3602 29.8434C59.1795 28.9411 61.4316 28.9411 63.251 29.8434C65.0704 30.7456 66.1741 32.4097 66.138 34.1963H66.1363Z" fill="black"/>
<path d="M62.984 26.636C62.1463 26.215 61.1935 26.1353 60.3048 26.4121C59.8582 26.5533 59.4375 26.7824 58.9845 26.8978C58.0172 27.1476 56.8888 26.8771 56.0586 27.4817C55.5975 27.8262 55.3203 28.3706 55.0623 28.8994L54.4175 30.2119C54.0661 30.9302 53.7114 31.6605 53.5647 32.4512C53.418 33.2418 53.5067 34.1272 53.9758 34.7628C54.3176 35.2261 54.8221 35.5172 55.1929 35.953C55.6419 36.4889 55.8616 37.2005 55.799 37.9167C56.2198 37.7444 56.2601 37.1381 56.2698 36.6558C56.2877 35.8026 56.4258 34.9571 56.6792 34.1478C56.8264 33.614 57.0762 33.1188 57.4127 32.694C57.7566 32.2684 58.2551 32.0212 58.7814 32.0154C59.4262 32.0395 60.0049 32.5149 60.6433 32.4581C61.1269 32.415 61.5557 32.0619 62.0426 31.993C62.4718 31.9496 62.9008 32.0792 63.2452 32.3564C63.586 32.6328 63.8846 32.964 64.1302 33.3383C65.0104 34.5767 65.7245 36.0288 65.7664 37.5825C65.9486 37.7255 66.2114 37.5394 66.3017 37.319C66.3919 37.0985 66.3952 36.8401 66.5096 36.63C66.6418 36.3871 66.8949 36.2579 67.0932 36.0753C67.5961 35.612 67.7219 34.8317 67.7025 34.1237C67.6832 33.4158 67.5542 32.6975 67.68 32.0016C67.7557 31.5744 67.9266 31.1748 68.0201 30.7528C68.1136 30.3308 68.1249 29.8571 67.9041 29.4936C67.5816 28.9597 66.903 28.8546 66.3113 28.8046C65.6391 28.7426 65.0378 28.8219 64.609 28.2173C64.4077 27.9018 64.1812 27.6055 63.9319 27.3319C63.8465 27.2423 62.984 26.6739 62.984 26.636Z" fill="#512E4E"/>
<path opacity="0.1" d="M43.149 61.6214L41.4115 58.3333L40.8611 63.4067C40.8611 63.4067 41.1671 65.6601 41.1055 66.0056C41.044 66.3511 42.3592 69.4486 42.3592 69.4486C42.3592 69.4486 46.704 77.3693 48.4781 77.7778L54.4722 73.3936L52.8827 71.3275C52.8827 71.3275 52.3323 71.1079 52.1943 71.3275C52.1943 71.3275 49.2429 66.1298 48.937 65.7537C48.6311 65.3776 48.6909 64.627 48.6909 64.627C48.6909 64.627 48.232 64.1267 48.385 63.6569C48.5379 63.1872 47.4987 61.5584 47.4987 61.5584L48.4465 60.6513L43.149 61.6214Z" fill="black"/>
<path d="M41.8703 58.3333L41.4114 58.7007L40.8611 63.6782C40.8611 63.6782 41.167 65.889 41.1055 66.228C41.044 66.5669 42.3607 69.6059 42.3607 69.6059C42.3607 69.6059 46.7032 77.377 48.4772 77.7778L54.4722 73.4764L52.8812 71.4493C52.8812 71.4493 52.3309 71.2339 52.1929 71.4493C52.1929 71.4493 49.2419 66.3499 48.936 65.9809C48.6301 65.6118 48.6916 64.8755 48.6916 64.8755C48.6916 64.8755 48.2328 64.3845 48.3857 63.9237C48.5387 63.4628 47.4979 61.8649 47.4979 61.8649L48.4456 60.9749L41.8703 58.3333Z" fill="white"/>
<path opacity="0.1" d="M71.4391 77.5812C71.854 77.9523 71.5926 79.6186 71.5926 79.6186L70.4475 81.0146C70.4475 81.0146 70.5159 81.9157 70.5201 83.1299L68.5949 83.5728C68.2419 83.654 67.8574 83.6044 67.5628 83.4397C67.2683 83.275 67.1002 83.0156 67.1117 82.7435L67.4436 74.8611L71.9349 76.1257C71.5532 76.3212 71.9722 76.8008 71.9722 76.8008C71.9722 76.8008 71.02 77.2101 71.4391 77.5812Z" fill="black"/>
<path d="M71.4393 77.5777C71.854 77.9485 71.5928 79.6151 71.5928 79.6151L70.4481 81.01C70.4481 81.01 70.5165 81.9089 70.5228 83.1237L68.5632 83.574C68.2176 83.653 67.8414 83.6042 67.5533 83.4431C67.2652 83.2819 67.1007 83.0282 67.1116 82.762L67.4455 74.8611L71.937 76.1247C71.5534 76.3201 71.9722 76.7978 71.9722 76.7978C71.9722 76.7978 71.0246 77.2083 71.4393 77.5777Z" fill="white"/>
<path d="M71.9722 73.382C71.9722 73.382 71.6422 75.0583 70.8159 75.1565C69.9896 75.2546 69.6191 77.8682 68.7951 77.7754C67.9711 77.6825 68.5167 75.3457 68.5459 74.8922C68.5751 74.4388 67.6477 72.5608 68.3416 72.1341C69.0354 71.7074 71.2313 72.1341 71.2313 72.1341L71.9722 73.382Z" fill="#CF6F80"/>
<path opacity="0.1" d="M73.417 61.6338L74.4634 59.3055C74.4634 59.3055 74.8796 61.08 74.8796 62.0279C74.8796 62.9758 75.4616 63.069 75.4616 63.069C75.4616 63.069 76.0994 63.9005 75.7632 64.5058C75.427 65.1112 75.2913 66.6179 75.2913 66.6179C75.2913 66.6179 75.4013 69.4932 74.9022 69.8907C74.4031 70.2881 74.2991 71.2377 74.2991 71.2377C74.2991 71.2377 73.3823 73.0421 73.411 73.4712C73.4396 73.9002 72.1354 76.8055 72.1354 76.8055C72.1354 76.8055 72.7732 73.1951 69.0564 71.6352C69.0564 71.6352 69.0277 70.4096 69.3052 70.0736C69.5826 69.7377 70.0154 69.5847 69.7439 67.8867C69.4725 66.1888 69.6655 64.1599 69.6655 63.7525C69.6655 63.345 70.4979 60.8039 70.4979 60.8039L73.417 61.6338Z" fill="black"/>
<path d="M73.5502 58.3333L74.4632 58.6778C74.4632 58.6778 74.8805 60.5159 74.8805 61.4979C74.8805 62.4798 75.462 62.5763 75.462 62.5763C75.462 62.5763 76.0992 63.4376 75.7633 64.0646C75.4273 64.6917 75.2933 66.2524 75.2933 66.2524C75.2933 66.2524 75.4032 69.2309 74.9046 69.6427C74.4059 70.0544 74.2944 71.038 74.2944 71.038C74.2944 71.038 73.38 72.9071 73.4086 73.3516C73.4372 73.796 72.1326 76.8055 72.1326 76.8055C72.1326 76.8055 72.7713 73.0656 69.0563 71.4497C69.0563 71.4497 69.0292 70.1801 69.3064 69.8322C69.5836 69.4842 70.0159 69.3257 69.7447 67.5668C69.4736 65.808 69.6664 63.7063 69.6664 63.2843C69.6664 62.8622 70.498 60.23 70.498 60.23L73.5502 58.3333Z" fill="white"/>
<path opacity="0.1" d="M51.5555 118.411C51.5555 118.411 53.7482 116.976 55.1873 118.019C56.6264 119.061 51.5555 118.411 51.5555 118.411Z" fill="black"/>
<path opacity="0.1" d="M64.1945 115.7C64.1945 115.7 66.1363 115.581 67.7669 116.419C69.3976 117.257 64.1945 115.7 64.1945 115.7Z" fill="black"/>
<g opacity="0.1">
<path opacity="0.1" d="M67.0384 34.0246C66.8413 34.1781 66.5881 34.2882 66.4567 34.4923C66.3445 34.6675 66.3413 34.8833 66.2516 35.0715C66.1618 35.2598 65.9006 35.4133 65.7195 35.2945C65.6779 33.9913 64.9663 32.7678 64.0929 31.7252C63.8487 31.4106 63.5519 31.1322 63.2131 30.8999C62.8701 30.6669 62.4432 30.5579 62.016 30.5944C61.5352 30.6537 61.1122 30.9491 60.6266 30.9853C59.9856 31.0345 59.4102 30.6334 58.774 30.6132C58.251 30.6179 57.7556 30.8264 57.415 31.1851C57.0805 31.5417 56.8321 31.9574 56.6859 32.4058C56.4341 33.0861 56.2968 33.7968 56.2788 34.5141C56.2692 34.9181 56.2275 35.422 55.8141 35.5725C55.8237 35.6795 55.8237 35.787 55.8141 35.894C56.2308 35.7492 56.2724 35.2395 56.282 34.8341C56.2999 34.1168 56.4371 33.4061 56.6891 32.7258C56.8354 32.277 57.0837 31.8608 57.4183 31.5037C57.7595 31.1459 58.2546 30.9381 58.7772 30.9332C59.4183 30.9535 59.9952 31.3531 60.6298 31.3053C61.1106 31.2691 61.5368 30.9723 62.0192 30.9144C62.4464 30.8779 62.8733 30.9869 63.2163 31.2199C63.5551 31.4522 63.852 31.7306 64.0961 32.0452C64.9695 33.0863 65.6811 34.307 65.7227 35.6131C65.9038 35.7333 66.165 35.5769 66.2548 35.3915C66.3445 35.2062 66.3477 34.989 66.4599 34.8123C66.5913 34.6082 66.8445 34.4996 67.0417 34.3461C67.5417 33.9566 67.6667 33.3006 67.6474 32.7055C67.6474 32.6867 67.6474 32.6679 67.6474 32.6505C67.617 33.166 67.4647 33.6916 67.0384 34.0246Z" fill="black"/>
<path opacity="0.1" d="M55.2083 33.9218C54.8397 33.5555 54.3365 33.3108 53.9984 32.9227C53.7137 32.5792 53.551 32.1657 53.532 31.7368C53.4816 32.2727 53.6472 32.807 53.9984 33.2413C54.3365 33.6308 54.8397 33.8755 55.2083 34.2418C55.5622 34.6002 55.7747 35.0544 55.8125 35.5334C55.8621 34.9444 55.6439 34.3624 55.2083 33.9218Z" fill="black"/>
<path opacity="0.1" d="M67.9599 29.5504C67.8654 29.9051 67.6971 30.2425 67.6202 30.6002C67.5746 30.8392 67.558 31.0819 67.5705 31.3242C67.5759 31.1862 67.5925 31.0487 67.6202 30.9129C67.6971 30.5538 67.8654 30.2179 67.9599 29.8631C68.015 29.6675 68.0329 29.4648 68.0128 29.2637C68.0029 29.3603 67.9852 29.4561 67.9599 29.5504Z" fill="black"/>
</g>
<path opacity="0.1" d="M21.4167 126.389C30.5447 126.389 37.9444 125.083 37.9444 123.472C37.9444 121.861 30.5447 120.556 21.4167 120.556C12.2886 120.556 4.88889 121.861 4.88889 123.472C4.88889 125.083 12.2886 126.389 21.4167 126.389Z" fill="#F8765E"/>
<path d="M22.4167 72.9167H21.4167V96.25H22.4167V72.9167Z" fill="#535461"/>
<path d="M28.2185 96.8236L28.1562 97.8498L28.0666 99.302L28.0298 99.9054L27.9418 101.358L27.9034 101.961L27.8138 103.413L26.8028 119.883C26.7116 121.354 25.5028 122.499 24.0418 122.5H18.7853C17.3247 122.499 16.1163 121.353 16.0259 119.883L15.0197 103.402L14.9302 101.95L14.8934 101.346L14.8038 99.8941L14.767 99.2907L14.6774 97.8385L14.6134 96.8123C14.591 96.4131 14.7327 96.0222 15.0051 95.7318C15.2776 95.4414 15.6567 95.2771 16.0531 95.2778H26.8044C27.1994 95.2812 27.5753 95.4492 27.8431 95.742C28.111 96.0348 28.2468 96.4262 28.2185 96.8236Z" fill="#3F3D56"/>
<path d="M28.2222 97.2222L28.1318 98.1945H14.7015L14.6111 97.2222H28.2222Z" fill="#9D9CB5"/>
<path d="M28.2222 99.1667L28.1317 100.139H14.7033L14.6111 99.1667H28.2222Z" fill="#9D9CB5"/>
<path d="M28.2222 102.083L28.13 103.056H14.7051L14.6111 102.083H28.2222Z" fill="#9D9CB5"/>
<path d="M14.0193 82.6017C19.9241 87.1664 22.3889 94.3055 22.3889 94.3055C22.3889 94.3055 15.2727 94.0447 9.36633 89.4799C3.45992 84.9152 1 77.7778 1 77.7778C1 77.7778 8.11292 78.0369 14.0193 82.6017Z" fill="#9BDBE7"/>
<path d="M1 77.7778C1 77.7778 8.38618 82.1577 10.755 85.7842C13.1238 89.4108 22.3889 94.3055 22.3889 94.3055" stroke="#535461" stroke-width="2"/>
<path d="M16.8505 73.2431C20.0701 75.39 21.4167 78.75 21.4167 78.75C21.4167 78.75 17.5359 78.6275 14.3146 76.4806C11.0933 74.3337 9.75 70.9722 9.75 70.9722C9.75 70.9722 13.6292 71.0947 16.8505 73.2431Z" fill="#9BDBE7"/>
<path d="M9.75 70.9722C9.75 70.9722 13.7782 73.034 15.0697 74.7401C16.3611 76.4463 21.4167 78.75 21.4167 78.75" stroke="#535461" stroke-width="2"/>
<path d="M26.9435 80.1565C23.1842 84.1827 22.3889 89.4444 22.3889 89.4444C22.3889 89.4444 27.6894 88.1767 31.4454 84.149C35.2014 80.1212 36 74.8611 36 74.8611C36 74.8611 30.7028 76.1304 26.9435 80.1565Z" fill="#9BDBE7"/>
<path d="M36 74.8611C36 74.8611 31.1041 78.9888 29.8595 81.8326C28.615 84.6764 22.3889 89.4444 22.3889 89.4444" stroke="#535461" stroke-width="2"/>
<path d="M165.272 77.3383C165.272 77.3383 162.556 63.6977 163.596 62.0005C163.596 62.0005 163.634 60.4228 163.571 58.4118C163.571 58.3354 163.571 58.259 163.571 58.181C163.754 58.3041 163.945 58.415 164.142 58.5131C165.099 59.0099 166.199 59.1532 167.25 58.9183L166.428 57.9933C166.23 57.7724 166.025 57.5333 165.982 57.241C165.939 56.9487 166.058 56.688 166.16 56.4273C166.941 54.4345 166.982 51.9286 165.477 50.4074C164.206 49.1287 163.897 47.478 162.517 46.3106C161.509 45.4554 160.955 44.2016 160.432 42.9893C159.989 41.9647 159.544 40.9317 159.29 39.8457C159.093 38.9971 159.014 38.1186 158.743 37.2899C158.471 36.4612 157.963 35.6558 157.169 35.2855C156.886 35.1543 156.572 35.0796 156.314 34.9052C155.975 34.6744 155.771 34.2991 155.526 33.9703C154.281 32.3096 150.112 33.2877 148.139 33.962C147.602 34.1317 147.105 34.4097 146.678 34.779L146.696 34.7491C146.711 34.7242 146.729 34.6993 146.746 34.6744C146.53 34.8508 146.343 35.061 146.193 35.2971C145.905 35.7571 145.785 36.2935 145.545 36.7917C145.256 37.3812 143.646 39.027 144.338 39.6896C144.387 39.7341 144.442 39.77 144.502 39.7958C144.762 39.9051 145.049 39.934 145.325 39.8789L145.295 39.9503C145.059 40.5349 144.937 41.1605 144.938 41.7919C144.938 44.5204 147.167 46.7324 149.918 46.7324C150.435 46.7329 150.949 46.6528 151.443 46.4949C151.454 46.558 151.464 46.6211 151.475 46.6842C151.475 46.7091 151.484 46.7341 151.487 46.759L151.4 46.8819C151.395 46.8743 151.39 46.8671 151.385 46.8603L148.803 50.5037C148.408 50.7844 146.136 52.4451 146.007 53.6905C145.872 55.0539 145.738 56.6498 145.738 56.6498L145.719 56.9919C145.491 57.1846 145.191 57.2666 144.897 57.2161C144.091 57.0833 144.091 60.2053 144.091 60.2053C144.091 60.2053 143.555 60.7035 143.187 60.2717C142.818 59.84 141.845 61.303 141.845 61.303L135.744 61.5687L135.604 61.577L135.275 60.549C135.201 60.3234 134.961 60.1997 134.737 60.2717C134.712 60.2802 134.687 60.2907 134.663 60.3033L134.64 60.3166L134.597 60.3465L134.576 60.3664C134.564 60.3772 134.553 60.3888 134.543 60.4013L134.523 60.4245L134.513 60.4345C134.436 60.542 134.414 60.68 134.454 60.8064L134.737 61.6883C133.56 61.9274 132.356 62.6016 133.338 64.4582L128.361 63.5299L129.971 64.895L138.283 66.627C138.173 66.8263 138.245 67.1153 138.589 67.5221C140.069 69.2775 142.766 69.7541 143.851 69.877C144.138 70.5244 144.496 71.1372 144.919 71.7037L144.825 73.4523C144.825 73.4523 142.077 86.7808 141.574 87.4566C141.828 87.166 142.06 86.8568 142.269 86.5317C141.472 89.2701 140.357 93.0182 140.064 93.5795C139.593 94.4762 139.158 98.1048 139.694 98.3373C139.858 98.4087 140.329 98.3738 141 98.3223V98.6229L140.97 110.013C140.97 110.013 141.105 117 140.735 117.666C140.365 118.332 140.266 119.728 140.266 119.728C140.266 119.728 138.786 122.483 137.613 123.591C137.605 123.599 137.597 123.607 137.587 123.614L137.551 123.355C137.551 123.355 136.142 125.152 133.023 125.051C133.023 125.051 131.147 126.283 133.93 126.349C136.712 126.416 140.266 126.25 140.266 126.25C140.266 126.25 142.748 122.43 144.826 122.928V125.823H145.463V122.882C146.059 122.485 146.469 121.859 146.596 121.15C146.707 120.413 146.424 119.673 145.853 119.202C145.598 118.969 145.45 118.639 145.446 118.292L145.423 118.312C145.423 118.254 145.409 118.194 145.402 118.132C145.219 116.638 144.991 113.554 145.798 111.272C146.905 108.143 147.241 103.786 146.435 101.192C146.175 100.363 145.961 99.5195 145.795 98.6661C145.775 98.5581 145.757 98.4552 145.741 98.3588C146.292 98.4341 146.837 98.545 147.374 98.691C149.24 99.2108 153.324 99.3071 156.81 99.2789C156.819 99.3752 156.828 99.4765 156.84 99.5778C156.902 100.282 157.032 100.978 157.228 101.657C157.666 102.985 157.866 108.843 157.866 108.843C157.866 108.843 158.43 113.658 158.123 115.618C157.958 116.707 157.794 117.802 157.7 118.901V118.923C157.7 118.923 156.776 121.58 156.1 123.023C156.083 123.059 156.065 123.096 156.049 123.131C155.869 123.147 155.691 123.187 155.521 123.249C155.521 123.249 154.615 125.075 153.712 125.378C152.809 125.68 153.108 126.675 155.153 126.309C157.197 125.944 160.284 125.645 160.284 125.645L160.417 123.782L161.045 122.988L160.881 124.846L161.55 124.713L161.461 122.453L162.489 121.155C162.489 121.155 163.731 120.039 161.885 117.843V117.891C161.866 117.86 161.848 117.827 161.826 117.795V117.785C161.52 117.307 161.277 116.415 161.723 114.833C162.528 111.973 162.997 109.377 162.997 109.377C162.997 109.377 164.796 102.424 162.634 99.1344H162.729C162.507 98.6715 162.351 98.1796 162.264 97.673C162.253 97.6132 162.243 97.5518 162.234 97.4887C163.834 97.3957 165.405 97.1034 166.686 96.4723C166.681 96.4657 165.91 79.9654 165.272 77.3383ZM144.956 65.8299V65.8631L144.627 65.8798L144.956 65.8299ZM143.828 65.9877C143.774 65.9998 143.723 66.0242 143.68 66.0591C143.539 66.2611 143.45 66.4959 143.422 66.7416L142.909 66.6254C142.909 66.6254 142.549 66.5473 142.031 66.4593L141.786 66.2102C142.46 66.1538 143.161 66.0707 143.828 65.9877Z" fill="url(#paint1_linear_4_701)"/>
<path d="M162.679 122.009L162.389 125.417L163.361 125.224L163.215 121.528L162.679 122.009Z" fill="#1D2366"/>
<path d="M147.648 111.785C146.803 114.137 147.042 117.311 147.232 118.853C147.302 119.423 147.367 119.769 147.367 119.769C147.367 119.769 146.103 122.581 145.998 122.688C145.892 122.794 142.278 124.949 142.278 124.949L139.751 126.389C139.751 126.389 137.188 125.292 138.417 124.914C138.668 124.816 138.894 124.665 139.08 124.473C140.31 123.331 141.856 120.494 141.856 120.494C141.856 120.494 141.961 119.053 142.348 118.368C142.735 117.684 142.594 110.485 142.594 110.485L142.624 98.7518V97.2222L147.432 97.2566C147.463 97.7758 147.532 98.2922 147.64 98.8016C147.812 99.6808 148.036 100.55 148.31 101.404C149.157 104.08 148.805 108.563 147.648 111.785Z" fill="#FFB0B1"/>
<path opacity="0.1" d="M145.861 119.436C145.861 119.436 144.802 121.977 144.714 122.073C144.625 122.169 141.597 124.115 141.597 124.115L139.481 125.417C139.481 125.417 137.333 124.426 138.363 124.084C138.573 123.995 138.763 123.859 138.918 123.686L139.009 124.364L139.715 124.333L145.754 118.611C145.807 119.123 145.861 119.436 145.861 119.436Z" fill="black"/>
<path d="M145.718 119.583L139.088 125.551L138.318 125.583L138.157 124.458C138.157 124.458 136.81 126.191 133.815 126.094C133.815 126.094 132.018 127.282 134.682 127.346C137.347 127.41 140.749 127.25 140.749 127.25C140.749 127.25 143.126 123.554 145.115 124.036V126.827H145.726V124.01C146.3 123.624 146.692 123.02 146.81 122.339C146.918 121.633 146.649 120.921 146.101 120.462C145.858 120.234 145.719 119.916 145.718 119.583Z" fill="#1D2366"/>
<path d="M162.467 114.484C162.044 116.018 162.275 116.882 162.564 117.345V117.355C162.936 117.927 163.194 118.566 163.325 119.238L163.351 119.384L160.364 123.799L158.744 124.444C158.744 124.444 156.138 123.542 156.614 123.284C156.733 123.221 156.919 122.885 157.133 122.422C157.769 121.025 158.648 118.449 158.648 118.449V118.428C158.74 117.364 158.887 116.304 159.049 115.248C159.341 113.348 158.806 108.684 158.806 108.684C158.806 108.684 158.615 103.013 158.201 101.724C158.014 101.068 157.89 100.395 157.83 99.7154C157.744 98.9083 157.725 98.2432 157.725 98.2432C157.725 98.2432 159.441 95.8218 162.587 98.4369C162.838 98.6455 163.059 98.889 163.244 99.1601C165.417 102.295 163.668 109.201 163.668 109.201C163.668 109.201 163.23 111.713 162.467 114.484Z" fill="#FFB0B1"/>
<path opacity="0.1" d="M163.361 119.62L160.37 123.829L158.747 124.444C158.747 124.444 156.137 123.584 156.614 123.338C156.733 123.278 156.92 122.958 157.133 122.516C158.238 122.507 158.811 123.523 158.811 123.523L160.211 123.307C160.211 123.307 162.057 119.804 162.471 119.59C162.886 119.376 162.535 117.991 162.535 117.991V117.639C162.546 117.651 162.556 117.665 162.569 117.677V117.687C162.941 118.232 163.2 118.842 163.331 119.483L163.361 119.62Z" fill="black"/>
<path d="M158.9 123.437C158.9 123.437 158.141 122.045 156.686 122.559C156.686 122.559 155.867 124.227 155.049 124.497C154.23 124.767 154.503 125.677 156.353 125.345C158.203 125.013 160.991 124.738 160.991 124.738L161.113 123.041L162.993 120.65C162.993 120.65 164.113 119.636 162.446 117.639V117.986C162.446 117.986 162.78 119.351 162.385 119.562C161.99 119.772 160.238 123.225 160.238 123.225L158.9 123.437Z" fill="#1D2366"/>
<path opacity="0.1" d="M146.592 97.2434C146.628 97.563 146.708 97.8809 146.833 98.1945C144.533 98.0201 142.399 98.1067 141 98.1638V97.2222L146.592 97.2434Z" fill="black"/>
<path opacity="0.1" d="M164.333 99.0483C164.333 99.0483 161.287 99.1465 157.653 99.1667C157.551 98.5372 157.528 98.0185 157.528 98.0185C157.528 98.0185 159.58 96.1301 163.343 98.1696C163.644 98.3322 163.909 98.5221 164.13 98.7336C164.189 98.8409 164.257 98.946 164.333 99.0483Z" fill="black"/>
<path d="M163.361 99.0043C163.361 99.0043 151.566 99.5803 147.97 98.5625C144.375 97.5448 140.812 98.4266 140.275 98.1904C139.738 97.9542 140.174 94.2553 140.645 93.3395C141.117 92.4237 143.702 83.1619 143.702 83.1619L146.19 70.0686L148.81 69.3397L148.996 69.287L153.562 68.0161L156.908 67.0833C156.908 67.0833 163.561 93.3055 162.991 95.2391C162.784 95.9795 162.75 96.7584 162.893 97.5142C162.98 98.0303 163.138 98.5317 163.361 99.0043Z" fill="#1D2366"/>
<path d="M136.497 62.2222C136.497 62.2222 133.969 64.8937 135.883 66.3825C137.797 67.8714 139.056 66.525 139.056 66.525L136.497 62.2222Z" fill="#C7DAF5"/>
<path opacity="0.1" d="M136.497 62.2222C136.497 62.2222 133.969 64.8937 135.883 66.3825C137.797 67.8714 139.056 66.525 139.056 66.525L136.497 62.2222Z" fill="black"/>
<path d="M156.556 45.02C156.556 45.02 156.236 45.2589 155.755 45.611C155.069 46.1148 154.055 46.8513 153.155 47.4684C151.908 48.3213 150.88 48.9476 151.248 48.4132C151.616 47.8788 151.546 46.9478 151.363 46.0765C151.349 46.0184 151.338 45.9602 151.324 45.9035C151.172 45.2636 150.971 44.6316 150.722 44.0109C150.722 44.0109 152.736 41.9652 153.85 41.1582C154.265 40.852 154.555 40.7264 154.573 40.9393C154.592 41.2256 154.865 41.858 155.204 42.5287C155.214 42.5501 155.223 42.57 155.235 42.5915C155.461 43.0508 155.716 43.5224 155.94 43.9297C156.283 44.5545 156.556 45.02 156.556 45.02Z" fill="#FFB0B1"/>
<path opacity="0.1" d="M155.583 42.788C155.168 44.602 153.57 46.0885 151.412 46.6666C151.246 45.8887 151.015 45.1207 150.722 44.3677C150.722 44.3677 154.807 40.0818 154.87 40.9492C154.885 41.2781 155.204 42.0075 155.583 42.788Z" fill="black"/>
<path opacity="0.1" d="M150.932 48.2391L151.339 47.6389C151.339 47.6389 151.608 49.36 152.599 48.6009C153.59 47.8418 153.639 54.3138 153.639 54.3138L152.575 70.9722L144.889 70.4904L145.107 62.441L145.977 58.3833L148.128 52.4845L149.408 50.5351L150.932 48.2391Z" fill="black"/>
<path d="M153.639 54.3198L152.67 69.3768L152.568 70.9722L148.28 70.7035L148.119 70.6934L144.889 70.4906L145.107 62.4424L145.977 58.3862L148.13 52.4895L149.411 50.5408L150.935 48.2372L151.342 47.6389C151.342 47.6389 151.612 49.3594 152.604 48.6006L152.625 48.5854C153.594 47.9431 153.639 54.3198 153.639 54.3198Z" fill="#1D2366"/>
<path d="M147.408 57.3611C147.408 57.3611 147.009 58.0887 146.208 57.9708C145.407 57.8529 145.409 60.5901 145.409 60.5901C145.409 60.5901 144.877 61.0267 144.509 60.6483C144.142 60.27 143.175 61.5491 143.175 61.5491L137.111 61.7819C137.111 61.7819 139.809 62.8573 139.28 66.1111C139.28 66.1111 148.441 65.6163 148.741 64.8611C149.041 64.1058 147.408 57.3611 147.408 57.3611Z" fill="white"/>
<path opacity="0.03" d="M147.408 57.3611C147.408 57.3611 147.009 58.0887 146.208 57.9708C145.407 57.8529 145.409 60.5901 145.409 60.5901C145.409 60.5901 144.877 61.0267 144.509 60.6483C144.142 60.27 143.175 61.5491 143.175 61.5491L137.111 61.7819C137.111 61.7819 139.809 62.8573 139.28 66.1111C139.28 66.1111 148.441 65.6163 148.741 64.8611C149.041 64.1058 147.408 57.3611 147.408 57.3611Z" fill="black"/>
<path d="M129.333 64.1667L130.913 65.7733L143.917 69.0278L142.304 67.0676L129.333 64.1667Z" fill="white"/>
<path d="M151.311 49.1653C151.119 49.4918 150.57 51.1635 150.111 52.623C149.728 53.8392 149.409 54.9085 149.409 54.9085C149.409 54.9085 148.663 60.3187 148.282 61.2965C147.901 62.2744 148.108 66.088 148.108 66.088L146.687 75.5059C146.687 75.5059 146.044 80.3627 145.05 83.2637C144.07 86.1189 142.978 87.4576 142.944 87.5C143.384 86.8372 145.78 73.7869 145.78 73.7869L146.572 57.3279C146.572 57.3279 146.687 55.7639 146.805 54.4269C146.922 53.0899 149.296 51.2647 149.296 51.2647L151.585 47.6389C151.815 47.9817 151.662 48.5792 151.311 49.1653Z" fill="white"/>
<path d="M144.671 70C144.671 70 140.49 69.8241 138.464 67.4713C136.439 65.1185 143.145 66.5323 143.145 66.5323L144.889 66.9192L144.671 70Z" fill="#FFB0B1"/>
<path opacity="0.1" d="M163.328 95.87C163.13 96.5967 163.098 97.3611 163.234 98.1028C159.191 98.3996 154.865 97.2691 154.865 97.2691C154.059 98.0361 151.937 99.1666 151.937 99.1666L150.78 84.3261C150.04 82.3251 149.75 71.8417 149.75 71.8417C149.75 71.8417 149.816 71.2931 149.911 70.471C149.911 70.451 149.911 70.4293 149.919 70.4093C150.208 68.1132 150.78 63.8028 151.06 63.2208C151.447 62.4204 149.871 60.2911 149.871 60.2911L150.588 53.963L150.675 53.1993C152.187 52.5006 153.346 50.2695 153.346 50.2695L154.235 48.6571C155.202 48.0151 155.252 54.3065 155.252 54.3065L154.285 69.1621L157.489 68.2466C157.489 68.2466 163.874 93.9724 163.328 95.87Z" fill="black"/>
<path d="M166.278 96.1624C161.634 98.3914 153.194 96.3266 153.194 96.3266C152.346 97.0816 150.109 98.1944 150.109 98.1944L148.889 83.5863C148.111 81.6167 147.806 71.2975 147.806 71.2975C147.806 71.2975 148.787 63.5979 149.194 62.8117C149.313 62.5819 149.255 62.2405 149.115 61.8728C148.422 60.1228 148.167 58.2392 148.371 56.3759L148.697 53.6988L148.787 52.9487C150.381 52.2594 151.602 50.0632 151.602 50.0632L152.451 48.6254L154.013 45.9762L154.753 44.7222L154.879 44.8322L155.838 45.6726C155.838 45.6726 156.245 46.0008 156.857 46.4933C158.186 47.5766 160.483 49.4838 161.668 50.6508C162.711 51.6783 163.04 55.675 163.135 58.6836C163.198 60.6648 163.161 62.2175 163.161 62.2175C162.11 63.89 164.858 77.318 164.858 77.318C165.498 79.913 166.278 96.1624 166.278 96.1624Z" fill="white"/>
<path opacity="0.03" d="M158.637 49.8176C158.637 49.8176 155.354 55.7516 155.735 58.0069C156.117 60.2622 157.201 62.8149 156.678 63.4111C156.314 63.869 155.745 64.1388 155.141 64.1402C154.616 64.1734 153.216 65.1018 153.216 65.2014C153.216 65.3011 151.924 65.3011 150.768 65.7661C149.611 66.2311 147.904 66.4952 147.904 66.4952C147.904 66.4952 144.581 66.3955 144.271 66.6945C143.962 66.9934 143.643 68.7821 144.306 70.2087C144.969 71.6353 145.706 72.6999 146.262 72.8942C146.818 73.0885 150.348 71.9658 153.211 71.7001C156.075 71.4343 159.183 69.2803 159.183 69.2803C159.183 69.2803 162.606 68.1178 163.206 66.163C163.806 64.2083 162.473 53.4646 162.473 53.4646C162.473 53.4646 161.465 48.4574 158.637 49.8176Z" fill="black"/>
<path opacity="0.03" d="M158.64 49.8171C158.64 49.8171 155.355 55.7529 155.74 58.0066C156.125 60.2603 157.207 62.8147 156.682 63.4126C156.319 63.871 155.75 64.141 155.145 64.1417C154.62 64.1749 153.22 65.1033 153.22 65.2029C153.22 65.3026 151.927 65.3026 150.77 65.7659C149.613 66.2293 147.905 66.4951 147.905 66.4951C147.905 66.4951 144.58 66.3954 144.272 66.6943C143.964 66.9933 143.642 68.7837 144.307 70.2086C144.972 71.6336 145.707 72.6999 146.263 72.8942C146.82 73.0885 150.352 71.9658 153.217 71.7017C156.082 71.4376 159.192 69.2802 159.192 69.2802C159.192 69.2802 162.615 68.1177 163.208 66.1645C163.802 64.2114 162.475 53.4643 162.475 53.4643C162.475 53.4643 161.47 48.4586 158.64 49.8171Z" fill="black"/>
<path d="M158.633 49.8153C158.633 49.8153 155.35 55.7515 155.735 58.0054C156.12 60.2593 157.2 62.8139 156.678 63.4102C156.315 63.8697 155.745 64.1404 155.14 64.141C154.615 64.1742 153.216 65.1027 153.216 65.2007C153.216 65.2987 151.925 65.3003 150.767 65.7654C149.609 66.2304 147.904 66.4945 147.904 66.4945C147.904 66.4945 144.581 66.3949 144.271 66.6939C143.962 66.9928 143.643 68.7833 144.306 70.2084C144.969 71.6335 145.705 72.6999 146.262 72.8942C146.818 73.0885 150.348 71.9657 153.211 71.7C156.074 71.4342 159.182 69.28 159.182 69.28C159.182 69.28 162.605 68.1173 163.205 66.1623C163.805 64.2074 162.481 53.4627 162.481 53.4627C162.481 53.4627 161.46 48.4633 158.633 49.8153Z" fill="white"/>
<path opacity="0.1" d="M157.955 65.2826C157.955 65.2826 156.026 64.7997 156.697 65.6045C157.369 66.4094 157.365 67.1145 158.186 67.0823C159.008 67.0501 157.955 65.2826 157.955 65.2826Z" fill="black"/>
<path opacity="0.1" d="M162.665 83.6111C162.665 83.6111 161.608 84.6184 163.631 86.9402C165.654 89.2619 162.665 83.6111 162.665 83.6111Z" fill="black"/>
<path opacity="0.1" d="M159.531 90.4167C159.531 90.5211 159.048 94.2441 160.855 95.1749C162.662 96.1056 159.531 90.4167 159.531 90.4167Z" fill="black"/>
<path d="M136.153 61.25C134.908 61.2996 132.219 61.7377 133.613 64.737C134.846 67.3915 136.918 65.6172 138.083 64.2712C137.799 63.0162 137.108 61.9349 136.153 61.25Z" fill="#FFB0B1"/>
<path d="M138.058 65.1646L138.108 65.1131L138.058 65.1646Z" fill="#FFB0B1"/>
<path opacity="0.1" d="M158.5 46.4517C157.257 47.2917 156.215 48.0005 156.011 48.1477C155.454 48.5557 154.393 50.9507 153.708 52.1731C153.163 53.157 151.391 53.4098 150.722 53.4722L150.808 52.7411C152.328 52.0691 153.491 49.9284 153.491 49.9284L156.495 44.7222L157.529 45.6518C157.529 45.6518 157.917 45.9718 158.5 46.4517Z" fill="black"/>
<path d="M158.5 46.4517C157.257 47.2917 156.215 48.0005 156.011 48.1493C155.454 48.5557 154.393 50.9507 153.708 52.1731C153.163 53.157 151.391 53.4098 150.722 53.4722L150.808 52.7411C152.328 52.0691 153.491 49.9284 153.491 49.9284L156.495 44.7222L157.529 45.6486C157.529 45.6486 157.917 45.9654 158.5 46.4517Z" fill="#DCE7FF"/>
<path d="M154.611 42.2909C154.612 43.1763 154.343 44.0409 153.841 44.7702C152.616 46.5521 150.272 47.1714 148.327 46.2275C146.381 45.2835 145.417 43.0596 146.059 40.9943C146.7 38.9291 148.754 37.6423 150.892 37.9665C153.03 38.2906 154.611 40.1284 154.611 42.2909Z" fill="#FFB0B1"/>
<path opacity="0.1" d="M164.333 58.3334C163.645 57.9392 163.084 57.3787 162.71 56.7115C162.427 56.1908 162.239 55.5897 161.756 55.2206C161.32 54.8892 160.738 54.8088 160.196 54.6605C158.412 54.1698 156.916 52.6552 156.86 50.9261C156.833 50.112 157.106 49.2995 156.982 48.4932C156.912 48.037 156.717 47.6051 156.416 47.239C156.266 47.0639 156.102 46.8998 155.926 46.7483C155.688 46.5401 155.439 46.3381 155.222 46.1172C155.085 45.9805 154.966 45.8296 154.866 45.6676C154.785 45.535 154.72 45.3949 154.671 45.2495C154.332 44.2839 154.64 43.1385 154.267 42.1619L154.247 42.1083C154.106 41.7612 153.819 41.4141 153.421 41.3873C153.022 41.3605 152.682 41.6681 152.302 41.8054C151.506 42.0925 150.648 41.6034 149.985 41.1049C149.322 40.6063 148.574 40.0368 147.732 40.1472C147.174 40.2214 146.733 40.5748 146.219 40.7578C146.103 40.7996 145.983 40.8318 145.861 40.854C146.758 38.773 149.116 37.5767 151.482 38.0022C153.848 38.4276 155.557 40.3553 155.556 42.5974C155.556 42.9256 155.52 43.253 155.446 43.574C155.454 43.5961 155.463 43.6166 155.473 43.6387C155.67 44.112 155.892 44.5979 156.087 45.0176L157.045 45.8254C157.045 45.8254 157.452 46.1409 158.062 46.6142C159.39 47.6555 161.684 49.4888 162.868 50.6105C163.909 51.6013 164.235 55.4414 164.333 58.3334Z" fill="black"/>
<path d="M146.284 37.6776C146.527 37.2055 146.648 36.6766 146.939 36.2288C147.366 35.5799 148.11 35.1646 148.875 34.9131C150.873 34.256 155.094 33.3021 156.356 34.9131C156.604 35.2376 156.81 35.5977 157.153 35.8216C157.415 35.9919 157.731 36.065 158.018 36.1931C158.822 36.5533 159.336 37.3385 159.61 38.1399C159.883 38.9413 159.965 39.8012 160.165 40.627C160.422 41.6863 160.873 42.6906 161.322 43.6883C161.85 44.8661 162.411 46.0877 163.431 46.92C164.824 48.0556 165.131 49.6633 166.424 50.9093C167.954 52.3889 167.904 54.8305 167.115 56.7692C167.012 57.0239 166.894 57.2899 166.935 57.5609C166.976 57.8318 167.187 58.0784 167.386 58.2942L168.222 59.1945C166.243 59.6504 164.004 58.6641 163.083 56.933C162.799 56.3977 162.61 55.7812 162.124 55.3999C161.689 55.0592 161.104 54.9781 160.562 54.8256C158.773 54.3194 157.274 52.7604 157.218 50.9823C157.19 50.1468 157.464 49.3113 157.34 48.4839C157.271 48.0116 157.075 47.5644 156.77 47.186C156.303 46.6036 155.597 46.2126 155.217 45.5637C154.572 44.4784 155.062 43.0686 154.598 41.9037C154.455 41.5468 154.169 41.1899 153.77 41.1623C153.37 41.1347 153.029 41.4511 152.646 41.5922C151.85 41.8875 150.99 41.3862 150.325 40.8719C149.661 40.3576 148.911 39.7736 148.064 39.8888C147.505 39.9634 147.065 40.3268 146.549 40.5166C146.169 40.6562 145.397 40.7811 145.064 40.4745C144.36 39.8563 145.99 38.2551 146.284 37.6776Z" fill="#591D4B"/>
<path opacity="0.1" d="M163.593 56.316C163.307 55.7672 163.12 55.1351 162.634 54.7459C162.199 54.3967 161.614 54.3118 161.07 54.1555C159.283 53.6382 157.783 52.0398 157.726 50.2169C157.698 49.3604 157.972 48.5021 157.85 47.6539C157.778 47.1728 157.582 46.7175 157.28 46.3316C156.811 45.7345 156.105 45.3337 155.726 44.6684C155.082 43.5573 155.571 42.112 155.106 40.9161C154.964 40.5519 154.677 40.186 154.279 40.156C153.881 40.1261 153.536 40.4538 153.156 40.5985C152.36 40.9012 151.498 40.3856 150.835 39.86C150.172 39.3344 149.419 38.734 148.574 38.8504C148.014 38.9286 147.572 39.3011 147.059 39.4941C146.678 39.6371 145.904 39.7668 145.571 39.4525C144.871 38.7872 146.501 37.1489 146.794 36.5601C147.037 36.0745 147.157 35.5339 147.45 35.0748C147.465 35.0499 147.482 35.0249 147.499 35C147.28 35.1773 147.092 35.3872 146.94 35.6221C146.649 36.0811 146.528 36.62 146.285 37.1073C145.991 37.6961 144.361 39.3394 145.063 39.9997C145.403 40.3157 146.168 40.186 146.549 40.0429C147.059 39.8483 147.504 39.4758 148.064 39.3993C148.914 39.2812 149.662 39.8816 150.325 40.4072C150.988 40.9328 151.855 41.4484 152.647 41.1457C153.028 41.001 153.361 40.675 153.769 40.7049C154.177 40.7348 154.449 41.0991 154.597 41.465C155.061 42.6592 154.572 44.1046 155.216 45.2173C155.597 45.8709 156.302 46.2801 156.77 46.8805C157.074 47.2684 157.271 47.7268 157.34 48.2111C157.464 49.0593 157.19 49.9159 157.217 50.7725C157.273 52.602 158.773 54.1937 160.561 54.7127C161.1 54.869 161.689 54.9522 162.124 55.3015C162.612 55.6923 162.804 56.3243 163.083 56.8732C164.004 58.6479 166.243 59.6591 168.222 59.1918L167.828 58.756C166.112 58.7809 164.376 57.8262 163.593 56.316Z" fill="black"/>
<path opacity="0.1" d="M151.076 49.4386C150.765 49.8195 149.875 51.7697 149.132 53.4722C148.437 53.2551 147.806 51.8706 147.806 51.8706L151.513 47.6389C151.893 48.0579 151.643 48.753 151.076 49.4386Z" fill="black"/>
<path d="M151.076 48.4651C150.765 48.8461 149.875 50.7969 149.132 52.5C148.437 52.2847 147.806 50.8979 147.806 50.8979L151.513 46.6667C151.893 47.0839 151.643 47.7812 151.076 48.4651Z" fill="#DCE7FF"/>
<path d="M136.418 65.4182L135.184 60.836C135.154 60.7276 135.163 60.6099 135.207 60.5088C135.252 60.4078 135.328 60.3317 135.421 60.2974C135.612 60.2271 135.815 60.3514 135.877 60.5759L137.111 65.1531L136.989 66.1111L136.418 65.4182Z" fill="#BE8B87"/>
<path opacity="0.1" d="M135.244 60.4266C135.442 60.3552 135.653 60.4798 135.716 60.7051L136.988 65.2823L136.892 66.0004L136.985 66.1111L137.111 65.1531L135.832 60.5759C135.769 60.3514 135.559 60.2271 135.362 60.2974C135.282 60.3269 135.214 60.386 135.167 60.4652C135.192 60.4499 135.218 60.437 135.244 60.4266Z" fill="white"/>
<path d="M136.139 66.3733L137.111 66.1111L136.969 66.9079L136.939 67.0833L136.655 66.8313L136.139 66.3733Z" fill="#EFC8C4"/>
<path d="M136.98 66.0204C136.994 66.0026 137.012 65.9879 137.032 65.9771C137.056 65.9621 137.086 65.9621 137.11 65.9771C137.122 65.9908 137.131 66.0059 137.139 66.022C137.161 66.0592 137.199 66.0843 137.242 66.0902L137.217 66.2565L136.98 66.0204Z" fill="#727A9C"/>
<path d="M135.167 64.1667C135.167 64.1667 137.596 64.1542 137.024 65.0771C136.452 66 135.558 66.1111 135.558 66.1111L135.167 64.1667Z" fill="#FFB0B1"/>
<path d="M117.406 7.77777H117.282C112.365 7.77777 108.016 10.3815 105.515 14.2237C103.013 10.3815 98.6644 7.77777 93.7472 7.77777H93.6236C85.9431 7.85101 79.7542 14.0999 79.75 21.7859C79.75 26.3717 81.7571 32.8786 85.6709 38.2329C93.1275 48.4352 105.515 57.3611 105.515 57.3611C105.515 57.3611 117.902 48.4368 125.357 38.2329C129.272 32.8786 131.278 26.3717 131.278 21.7859C131.274 14.1006 125.086 7.85191 117.406 7.77777ZM115.638 39.0178C114.491 39.0134 113.466 38.3047 113.055 37.2336H110.116C109.719 37.2311 109.367 36.9768 109.241 36.6004L108.338 33.8779L105.48 43.8691C105.366 44.2642 105.005 44.5363 104.594 44.5369H104.536C104.106 44.5161 103.748 44.1972 103.679 43.7718L100.734 26.0485L98.5821 36.5361C98.4805 36.946 98.1126 37.2339 97.6905 37.2336H93.5494C93.2113 37.2479 92.8926 37.0756 92.7193 36.7847C92.546 36.4939 92.546 36.1314 92.7193 35.8405C92.8926 35.5497 93.2113 35.3774 93.5494 35.3917H96.9655L100.014 21.2912C100.117 20.8613 100.51 20.5645 100.952 20.583C101.393 20.6015 101.76 20.93 101.827 21.3671L104.834 39.4465L107.395 30.5074C107.504 30.1207 107.855 29.8523 108.257 29.8478H108.275C108.672 29.8479 109.024 30.1033 109.148 30.481L110.781 35.3966H113.019C113.461 34.0543 114.843 33.2615 116.224 33.5589C117.604 33.8562 118.538 35.1478 118.389 36.5531C118.24 37.9583 117.055 39.0244 115.643 39.0244L115.638 39.0178Z" fill="#9BDBE7"/>
<defs>
<linearGradient id="paint0_linear_4_701" x1="59.8177" y1="127.365" x2="59.8177" y2="25.278" gradientUnits="userSpaceOnUse">
<stop stop-color="#808080" stop-opacity="0.25"/>
<stop offset="0.54" stop-color="#808080" stop-opacity="0.12"/>
<stop offset="1" stop-color="#808080" stop-opacity="0.1"/>
</linearGradient>
<linearGradient id="paint1_linear_4_701" x1="147.8" y1="126.389" x2="147.8" y2="33.0602" gradientUnits="userSpaceOnUse">
<stop stop-color="#808080" stop-opacity="0.25"/>
<stop offset="0.54" stop-color="#808080" stop-opacity="0.12"/>
<stop offset="1" stop-color="#808080" stop-opacity="0.1"/>
</linearGradient>
</defs>
</svg>
