<svg width="190" height="141" viewBox="0 0 190 141" fill="none" xmlns="http://www.w3.org/2000/svg">
<path opacity="0.1" d="M105.226 19.3124C93.9312 18.9241 83.1736 15.3009 72.9012 11.3379C62.6288 7.37493 52.4541 2.98548 41.4225 0.884366C34.3317 -0.466101 26.2216 -0.656796 20.5095 3.1207C15.0102 6.76124 13.2336 13.0264 12.279 18.8478C11.5599 23.2269 11.1376 27.8365 13.1062 31.9364C14.4745 34.783 16.9021 37.1753 18.5792 39.9005C24.4205 49.3885 20.2913 61.085 13.9631 70.3493C10.9962 74.6937 7.5494 78.8439 5.25792 83.4639C2.96643 88.084 1.91406 93.3887 3.91933 98.1162C5.9054 102.797 10.6402 106.306 15.7694 108.776C26.1867 113.795 38.4574 115.23 50.4314 116.045C76.9292 117.844 103.567 117.066 130.134 116.284C139.967 115.995 149.841 115.704 159.513 114.192C164.885 113.354 170.43 112.023 174.33 108.818C179.28 104.739 180.507 97.8319 177.189 92.7161C171.625 84.1366 156.246 82.006 152.353 72.7989C150.213 67.7299 152.41 62.0853 155.522 57.3855C162.196 47.3012 173.381 38.4547 173.971 26.9298C174.374 19.0143 168.997 11.0865 160.683 7.34026C151.969 3.41541 139.883 3.90948 133.457 10.407C126.834 17.0813 115.2 19.6574 105.226 19.3124Z" fill="#F8765E"/>
<path d="M18.0952 119.113C18.0952 119.113 21.6666 118.444 23.8095 121.399C23.8095 121.399 22.2381 122.848 18.8571 120.841L18.0952 119.113Z" fill="#F8765E"/>
<path d="M17.9621 119.048C17.9621 119.048 15.2146 121.757 16.5627 124.762C16.5627 124.762 18.8034 124.045 19.0476 120.394L17.9621 119.048Z" fill="#F8765E"/>
<path d="M15.2381 114.297C15.2381 114.297 16.7619 111.511 22.8571 115.412C22.8571 115.412 22.0444 117.286 19.3524 117.134C16.6603 116.982 15.9492 115.766 15.2381 114.297Z" fill="#F8765E"/>
<path d="M15.4558 113.336C15.4558 113.336 12.6528 112.986 12.381 119.971C12.381 119.971 14.15 120.374 15.4204 118.165C16.6909 115.955 16.1618 114.716 15.4558 113.336Z" fill="#F8765E"/>
<path d="M13.3333 108.871C13.3333 108.871 14.9794 104.82 20.9524 107.702C20.9524 107.702 19.5885 111.418 13.9447 110.249L13.3333 108.871Z" fill="#F8765E"/>
<path d="M11.4286 100.873C11.4286 100.873 14.8646 96.9636 20.9524 100.588C20.9524 100.588 18.8191 104.259 11.9489 102.263L11.4286 100.873Z" fill="#F8765E"/>
<path d="M11.4286 94.2155C11.4286 94.2155 15.2293 90.0879 20.9524 94.2155C20.9524 94.2155 17.3508 97.8386 11.4374 95.2703L11.4286 94.2155Z" fill="#F8765E"/>
<path d="M10.4762 87.6616C10.4762 87.6616 14.4077 83.4342 20 87.4367C20 87.4367 15.5665 91.1695 10.4762 88.651V87.6616Z" fill="#F8765E"/>
<path d="M10.4762 82.2468C10.4762 82.2468 14.6814 76.5131 20 80.3976C20 80.3976 15.495 85.326 10.4762 83.3363V82.2468Z" fill="#F8765E"/>
<path d="M11.4286 75.3595C11.4286 75.3595 15.8369 69.6598 20.9524 74.0295C20.9524 74.0295 15.7356 78.9693 11.4286 76.4044V75.3595Z" fill="#F8765E"/>
<path d="M12.5981 70.0305C12.5981 70.0305 17.5686 65.194 21.9048 67.1197C21.9048 67.1197 16.7241 72.2566 12.381 71.3128L12.5981 70.0305Z" fill="#F8765E"/>
<path d="M14.6944 63.6008C14.6944 63.6008 20.4641 57.4025 23.8095 59.4697C23.8095 59.4697 19.5636 64.2808 14.2857 64.7619L14.6944 63.6008Z" fill="#F8765E"/>
<path d="M17.8284 56.4699C17.8284 56.4699 22.9357 51.2956 26.6667 52.5883C26.6667 52.5883 22.2975 57.9576 17.1429 58.0953L17.8284 56.4699Z" fill="#F8765E"/>
<path d="M19.2997 51.1794C19.2997 51.1794 25.098 45.8379 27.619 46.7776C27.619 46.7776 23.4342 52.7126 19.0476 52.3664L19.2997 51.1794Z" fill="#F8765E"/>
<path d="M21.9048 45.054C21.9048 45.054 26.8348 38.573 29.5238 39.0754C29.5238 39.0754 26.536 44.853 21.9048 45.7143V45.054Z" fill="#F8765E"/>
<path d="M23.9833 37.6398C23.9833 37.6398 28.1995 33.3224 30.4762 33.3333C30.4762 33.3333 27.148 39.1003 23.8095 39.0473L23.9833 37.6398Z" fill="#F8765E"/>
<path d="M26.1441 31.542L29.5228 21.9048C29.5228 21.9048 29.6927 30.6178 25.7143 33.3334L26.1441 31.542Z" fill="#F8765E"/>
<path d="M26.7041 22.1228C26.7041 22.1228 27.5678 13.9949 27.0126 13.3333C27.0126 13.3333 30.7404 20.0841 26.6667 25.7143L26.7041 22.1228Z" fill="#F8765E"/>
<path d="M12.8267 108.125C12.8267 108.125 8.50965 105.624 5.71429 111.742C5.71429 111.742 9.55636 114.125 13.3333 109.685L12.8267 108.125Z" fill="#F8765E"/>
<path d="M11.886 101.308C11.886 101.308 6.44868 99.2342 3.80951 105.1C3.80951 105.1 8.01123 107.508 12.3809 102.789L11.886 101.308Z" fill="#F8765E"/>
<path d="M11.4286 95.1678C11.4286 95.1678 7.62613 91.0402 1.90479 95.1678C1.90479 95.1678 5.50972 98.7909 11.4286 96.2226V95.1678Z" fill="#F8765E"/>
<path d="M10.4762 87.6616C10.4762 87.6616 6.54648 83.4342 0.952393 87.4367C0.952393 87.4367 5.38772 91.1695 10.4762 88.651V87.6616Z" fill="#F8765E"/>
<path d="M11.4285 82.5931C11.4285 82.5931 8.72772 75.9489 2.85712 78.8112C2.85712 78.8112 6.03041 84.6966 11.1905 83.6947L11.4285 82.5931Z" fill="#F8765E"/>
<path d="M12.3809 75.8621C12.3809 75.8621 9.71855 69.1335 3.80951 72.2547C3.80951 72.2547 7.427 78.4203 12.1185 76.9025L12.3809 75.8621Z" fill="#F8765E"/>
<path d="M13.3333 70.0767C13.3333 70.0767 12.3234 62.5763 7.61902 61.9048C7.61902 61.9048 8.61713 69.8144 12.7055 71.4286L13.3333 70.0767Z" fill="#F8765E"/>
<path d="M14.2857 64.4519C14.2857 64.4519 13.936 55.5471 10.4762 55.2381C10.4762 55.2381 10.5928 61.997 13.8957 65.7143L14.2857 64.4519Z" fill="#F8765E"/>
<path d="M18.0952 57.1691C18.0952 57.1691 16.9606 49.5088 13.3333 48.5714C13.3333 48.5714 13.7832 55.9914 17.7373 59.0476L18.0952 57.1691Z" fill="#F8765E"/>
<path d="M20.9524 51.3317C20.9524 51.3317 20.9086 43.1122 18.4467 41.9048C18.4467 41.9048 16.9174 49.3466 20.2388 52.381L20.9524 51.3317Z" fill="#F8765E"/>
<path d="M21.9048 45.1973C21.9048 45.1973 21.5795 37.3027 19.1442 36.1905C19.1442 36.1905 18.311 42.4368 21.5395 45.7143L21.9048 45.1973Z" fill="#F8765E"/>
<path d="M24.7619 38.6658C24.7619 38.6658 24.7426 32.0309 22.6047 30.4762C22.6047 30.4762 20.4754 37.7441 23.6447 40L24.7619 38.6658Z" fill="#F8765E"/>
<path d="M25.6176 31.4338L23.6226 20.9524C23.6226 20.9524 20.9037 29.5411 25.7143 33.3333L25.6176 31.4338Z" fill="#F8765E"/>
<path d="M25.0553 21.4212C25.0553 21.4212 20.868 14.1421 20.9537 13.3333C20.9537 13.3333 21.399 20.9623 26.6667 24.7619L25.0553 21.4212Z" fill="#F8765E"/>
<path d="M26.3566 20C26.3566 20 22.6357 9.42896 20.9524 8.57141C20.9524 8.57141 26.268 11.6438 26.6667 19.698L26.3566 20Z" fill="#F8765E"/>
<path d="M24.0962 39.0476L23.8095 38.9629C27.3665 27.9973 28.2535 21.0059 26.3075 19.2543L26.5153 19.0476C28.5779 20.8958 27.7375 27.8126 24.0962 39.0476Z" fill="#444053"/>
<path d="M14.712 65.7143L14.2857 65.5658C14.6618 64.5178 15.0702 63.4539 15.4965 62.4041C19.2077 53.2797 22.3654 44.7897 24.3929 38.2719L24.7619 38.0952C22.7326 44.6342 19.6304 53.4405 15.9156 62.5773C15.4965 63.6147 15.0917 64.6716 14.712 65.7143Z" fill="#444053"/>
<path d="M23.389 127.619C23.3352 127.557 17.9227 121.266 14.1517 110.521C11.9403 104.233 10.7083 97.6218 10.5018 90.9347C10.2445 82.5752 11.9416 73.2395 14.8531 64.7619L15.1693 65.144C8.63653 84.1731 11.2318 100.481 14.6748 110.303C18.4071 120.948 23.7574 127.173 23.8095 127.233L23.389 127.619Z" fill="#444053"/>
<path opacity="0.1" d="M92.3809 135.238C135.512 135.238 170.476 132.04 170.476 128.095C170.476 124.15 135.512 120.952 92.3809 120.952C49.2501 120.952 14.2857 124.15 14.2857 128.095C14.2857 132.04 49.2501 135.238 92.3809 135.238Z" fill="#F8765E"/>
<path d="M88.0952 131.429C117.813 131.429 141.905 107.55 141.905 78.0952C141.905 48.64 117.813 24.7619 88.0952 24.7619C58.3771 24.7619 34.2857 48.64 34.2857 78.0952C34.2857 107.55 58.3771 131.429 88.0952 131.429Z" fill="#9BDBE7"/>
<path d="M73.3333 74.2857C76.4892 74.2857 79.0476 71.0878 79.0476 67.1429C79.0476 63.198 76.4892 60 73.3333 60C70.1774 60 67.619 63.198 67.619 67.1429C67.619 71.0878 70.1774 74.2857 73.3333 74.2857Z" fill="#444053"/>
<path d="M102.857 74.2857C106.013 74.2857 108.571 71.0878 108.571 67.1429C108.571 63.198 106.013 60 102.857 60C99.7012 60 97.1429 63.198 97.1429 67.1429C97.1429 71.0878 99.7012 74.2857 102.857 74.2857Z" fill="#444053"/>
<path d="M121.905 90.9996C121.905 101.447 104.434 119.048 86.8073 119.048C69.1803 119.048 52.381 101.051 52.381 90.6018C52.381 80.1524 68.8239 89.709 86.4596 89.709C104.095 89.709 121.905 80.5501 121.905 90.9996Z" fill="#444053"/>
<path d="M58.8438 92.381C58.8438 92.381 90.5752 99.3187 117.235 92.576C117.235 92.576 120.498 92.576 118.269 96.2809C117.689 97.241 116.844 98.0198 115.831 98.5267C110.695 101.106 91.6652 108.73 61.2449 99.0074C59.3345 98.4159 57.8521 96.9243 57.2959 95.0339C56.9442 93.7613 57.0974 92.5572 58.8438 92.381Z" fill="#F6F8FB"/>
<path opacity="0.05" d="M60.9524 38.0952C60.9524 38.0952 44.6292 48.2162 44.7627 64.0397C44.8962 79.8633 60.9524 38.0952 60.9524 38.0952Z" fill="black"/>
<path d="M160.934 126.665C160.657 125.557 159.985 125.538 159.985 125.538L159.974 125.426L159.726 122.689C159.717 122.703 159.705 122.715 159.692 122.725L159.678 122.377C159.676 122.312 159.67 122.246 159.66 122.181C160.056 121.892 160.348 121.482 160.494 121.013C160.392 120.883 160.468 120.909 160.468 120.909C160.468 120.909 158.785 119.179 158.954 118.277C159.122 117.376 157.687 116.396 157.687 116.396C157.687 116.396 157.167 114.785 157.167 114.296C157.167 113.807 155.202 110.596 155.202 110.596C155.202 110.596 153.469 106.512 151.948 104.758C150.427 103.004 150.562 102.048 150.562 102.048C150.429 101.863 150.316 101.664 150.224 101.455C150.157 101.31 150.099 101.161 150.051 101.009C150.363 100.969 150.571 100.962 150.571 100.962C150.571 100.962 151.816 100.748 151.872 100.491C151.941 100.2 152.088 99.9343 152.296 99.7217C152.534 99.4659 151.621 94.5933 152.106 93.3334C152.591 92.0735 151.484 86.2926 151.484 86.2926C151.538 85.9382 151.737 85.6227 152.033 85.4225L152.768 85.1319L153.14 85.0414L153.19 85.0292L153.267 85.01L153.44 84.9665L153.49 84.9526L153.598 84.923L153.637 84.9126L153.811 84.8586L153.868 84.8395L153.949 84.8117L154.012 84.7873L154.095 84.7542L154.187 84.7107L154.24 84.6829L154.298 84.6498L154.343 84.6202C154.366 84.6037 154.389 84.5856 154.41 84.5663L154.445 84.5315C154.459 84.5172 154.472 84.5021 154.485 84.4862C154.493 84.4753 154.501 84.4637 154.507 84.4514L154.518 84.4375C154.579 84.311 154.565 84.1605 154.481 84.0477C154.3 83.7869 154.077 83.5572 153.823 83.3673L153.423 82.7495C153.422 82.7455 153.422 82.7413 153.423 82.7373C153.423 82.706 153.435 82.6712 153.443 82.6364C153.472 82.5062 153.479 82.372 153.462 82.2396C153.463 82.2321 153.463 82.2245 153.462 82.217C153.468 82.1755 153.471 82.1336 153.471 82.0917V82.0378C153.471 81.9978 153.471 81.9577 153.462 81.9177C153.454 81.8777 153.462 81.8777 153.462 81.8568C153.462 81.8359 153.449 81.7802 153.44 81.7419C153.431 81.7037 153.43 81.6967 153.423 81.6741C153.416 81.6515 153.404 81.6027 153.391 81.5662L153.365 81.4948C153.353 81.4618 153.339 81.427 153.326 81.3939C153.312 81.3608 153.305 81.3434 153.293 81.3191C153.281 81.2947 153.265 81.2564 153.249 81.2251C153.234 81.1938 153.223 81.1746 153.211 81.1503C153.199 81.1259 153.18 81.0911 153.163 81.0615L153.121 80.9884L153.073 80.9084L153.026 80.8353L152.979 80.764L152.932 80.6961C152.917 80.6752 152.901 80.6526 152.885 80.6334L152.84 80.5708L152.799 80.5168L152.756 80.4612L152.719 80.4159L152.681 80.3689L152.652 80.3359L152.62 80.2993L152.6 80.275L152.577 80.2506L152.565 80.2367L152.553 80.2245V80.2036C152.553 80.1932 152.553 80.181 152.553 80.1653V80.1479C152.553 80.1323 152.553 80.1149 152.553 80.094V80.0748C152.553 80.0505 152.553 80.0226 152.542 79.993V79.9826C152.519 79.8019 152.504 79.6201 152.499 79.4379C152.504 79.2481 152.546 79.0612 152.624 78.888C152.671 78.8019 152.667 78.6963 152.612 78.6148C152.617 78.6023 152.623 78.5901 152.629 78.5783C152.749 78.3468 152.522 78.1484 152.237 78.0005C152.237 77.5759 152.064 76.7145 150.664 76.5596C150.664 76.5596 149.845 76.0045 150.636 75.0074C151.428 74.0102 150.17 71.4591 150.17 71.4591C150.17 71.4591 149.77 70.415 149.985 69.9834C150.2 69.5518 149.735 65.713 149.735 65.713C149.735 65.713 149.735 62.1717 148.956 60.6664C148.176 59.1611 147.644 56.4586 146.745 56.0583C145.845 55.6581 145.133 54.6905 145.133 54.6905L144.714 54.8263C144.641 54.7184 144.568 54.6105 144.499 54.5026C144.533 54.4933 144.566 54.4817 144.598 54.4678C144.791 54.3806 144.95 54.232 145.05 54.0449C145.079 53.9924 145.104 53.9377 145.125 53.8813C145.195 53.6767 145.229 53.461 145.225 53.2444C145.21 53.0286 145.216 52.8117 145.244 52.5971C145.315 52.249 145.554 51.9706 145.764 51.68C146.184 51.1017 146.452 50.4257 146.542 49.7153C146.627 49.0012 146.452 48.2804 146.048 47.6862C145.844 47.3974 145.579 47.1415 145.45 46.8161C145.391 46.6665 145.365 46.5064 145.32 46.3532C145.04 45.4832 144.272 44.8628 143.366 44.7731C142.629 44.7053 141.903 44.9872 141.165 44.9785C140.309 44.968 139.433 44.5748 138.63 44.8741C138.271 45.0299 137.954 45.2683 137.703 45.5701C137.509 45.7859 137.327 46.0131 137.159 46.2506C137.06 46.3898 136.967 46.5307 136.878 46.6769V46.6891C136.788 46.837 136.705 46.9884 136.625 47.1433C136.607 47.1786 136.603 47.2197 136.613 47.2581C136.635 47.3025 136.672 47.3377 136.717 47.3573C136.858 47.4067 136.989 47.4823 137.102 47.5801C137.145 47.6299 137.192 47.6765 137.242 47.7193C137.218 47.7489 137.192 47.7767 137.168 47.808C136.335 48.8745 136.037 50.2668 136.36 51.583C136.683 52.8992 137.591 53.9927 138.823 54.5478L138.911 54.7427C139.078 55.1124 139.218 55.494 139.329 55.8843L138.951 55.9191C138.941 56.1645 138.748 56.3626 138.504 56.3768C138.062 56.4238 136.657 56.9458 136.657 56.9458C136.657 56.9458 134.544 58.0265 133.271 58.3693C131.997 58.7121 131.432 58.4198 131.432 58.4198C131.432 58.4198 131.289 59.3491 129.847 58.8374C128.405 58.3258 128.215 58.8653 128.215 58.8653C128.215 58.8653 124.153 58.7539 121.195 59.1507C118.238 59.5474 116.949 59.269 116.949 59.269C116.949 59.269 116.935 59.4256 116.919 59.6797L116.619 59.5057C114.654 58.4511 111.031 56.8153 110.515 58.8096C109.794 61.5817 116.124 62.7598 116.124 62.7598L116.592 62.7094L116.898 62.6763C116.957 63.4455 117.092 64.0685 117.375 64.1363C117.477 64.1624 120.506 64.1555 121.303 64.5296C122.1 64.9038 123.817 64.3556 123.817 64.3556C123.817 64.3556 124.259 64.2582 124.926 64.6549C125.593 65.0517 129.218 65.0534 129.218 65.0534C129.218 65.0534 129.476 65.1091 130.403 65.3823C131.33 65.6555 132.966 65.4189 132.966 65.4189L136.79 65.9148C136.79 65.9148 137.062 68.6069 136.762 69.5849C136.463 70.5629 136.703 75.3746 136.703 75.3746C136.703 75.3746 137.57 81.2303 137.332 81.9247C137.145 82.4624 138.805 81.8638 139.564 81.5662C139.604 81.7245 139.654 81.9142 139.711 82.1283C139.711 82.1474 139.737 82.1596 139.767 82.1666L139.829 82.2083C139.857 82.3232 139.885 82.4345 139.911 82.539L139.705 82.5946L139.977 82.7774C140.007 82.8878 140.043 82.9965 140.086 83.1028C140.311 83.6248 138.667 84.5802 138.667 84.5802C138.667 84.5802 134.125 87.0739 132.761 88.2346C132.761 88.2346 131.696 88.5827 131.613 88.9151C131.53 89.2474 130.573 89.1326 130.573 89.1326C130.573 89.1326 130.438 89.4928 130.329 89.8548C130.22 90.2167 129.636 90.7753 129.636 90.7753C129.636 90.7753 128.286 90.9876 128.095 91.7081C127.959 92.2654 127.856 92.8302 127.785 93.3995L126.269 96.1699C126.269 96.1699 122.135 99.264 121.701 100.447L118.775 102.417C118.775 102.417 118.293 103.496 117.439 103.534C116.585 103.573 115.11 105.101 115.11 105.101C115.11 105.101 115.543 105.275 116.179 105.571C116.141 105.63 116.105 105.689 116.074 105.745C115.956 105.968 115.869 106.206 115.815 106.453C115.815 106.453 113.909 107.615 112.492 107.128C111.691 106.853 110.113 106.378 108.971 106.321C108.093 106.277 107.469 106.481 107.651 107.213C107.961 108.478 111.088 111.663 112.631 113.173C112.875 113.412 113.134 113.636 113.405 113.843C113.764 114.12 114.146 114.366 114.547 114.578C114.781 114.701 115.022 114.813 115.268 114.912C115.532 115.019 115.804 115.107 116.08 115.175C116.625 115.302 117.12 115.296 117.399 115.001C118.293 114.082 117.919 113.434 117.919 113.434L118.019 113.36L120.483 111.508L121.041 111.03L121.195 110.897C121.112 111.577 120.82 112.214 120.362 112.721C120.976 112.362 121.622 112.06 122.291 111.82C123.157 111.548 123.691 109.905 123.691 109.905C123.691 109.905 124.164 109.422 125.004 108.555C125.844 107.688 126 105.47 126 105.47C126 105.47 130.313 102.713 132.065 99.5338C132.065 99.5338 132.382 99.0987 132.931 98.46C133.481 97.8214 133.5 96.7616 133.5 96.7616C133.5 96.7616 133.581 96.4536 134.317 95.6635C135.054 94.8735 134.959 94.3793 134.959 94.3793C134.959 94.3793 135.305 93.8938 136.594 93.9912C137.883 94.0887 140.912 92.5538 140.912 92.5538C140.912 92.5538 140.912 92.6948 140.94 92.9384C140.677 93.5475 140.503 93.9703 140.503 93.9703C140.503 93.9703 143.144 104.556 142.085 106.22C141.536 107.09 143.05 106.428 144.638 105.598C144.719 105.698 144.811 105.802 144.911 105.913C145.287 106.32 145.688 106.704 146.11 107.062L146.162 107.107C146.162 107.107 149.378 112.091 149.888 112.676C150.397 113.26 150.061 114.98 150.061 114.98C150.061 114.98 150.959 120.989 152.185 122.041C152.441 122.236 152.727 122.387 153.031 122.489C153.01 123.237 153.684 123.851 153.684 123.851C153.684 123.851 153.67 125.842 152.634 126.684C152.049 127.163 150.945 128.134 150.364 128.971C149.919 129.617 149.78 130.189 150.422 130.391C151.529 130.751 155.417 129.881 157.29 129.423C158.212 129.204 159.082 128.803 159.849 128.244C160.497 127.765 161.062 127.186 160.934 126.665ZM118.279 106.75C118.387 106.822 118.492 106.895 118.598 106.97L118.425 107.109L118.354 107.165C118.354 107.128 118.343 107.088 118.336 107.048C118.317 106.952 118.3 106.853 118.279 106.75Z" fill="url(#paint0_linear_4_867)"/>
<path d="M118.095 63.5563L116.235 63.7599L115.796 63.8095C115.796 63.8095 109.853 62.6613 110.53 59.9678C111.015 58.0188 114.419 59.6136 116.266 60.6523C116.973 61.0476 117.45 61.3591 117.45 61.3591L118.095 63.5563Z" fill="#D17483"/>
<path d="M121.905 108.966L119.91 110.643L119.396 111.075L118.201 111.429L115.238 108.871L117.439 107.154L117.504 107.102L119.285 105.714L121.905 108.966Z" fill="#DCE6F2"/>
<path d="M157.098 120.954L154.286 121.081L155.057 124.41L156.111 124.762L159.048 124.524L158.969 122.613C158.949 122.153 158.74 121.718 158.389 121.407C158.038 121.096 157.573 120.933 157.098 120.954Z" fill="#DCE6F2"/>
<path opacity="0.1" d="M118.095 106.667C117.186 106.027 116.231 105.46 115.238 104.97C115.492 104.4 115.982 103.979 116.57 103.824C117.445 103.634 117.891 105.383 118.095 106.667Z" fill="black"/>
<path opacity="0.1" d="M120.7 111.429C120.832 110.071 119.526 108.887 118.095 108.009L120.021 106.667L122.857 109.808L120.7 111.429Z" fill="black"/>
<path d="M160 120.864C159.115 123.793 153.026 122.913 151.817 121.871C150.608 120.829 149.721 114.879 149.721 114.879C149.721 114.879 150.054 113.168 149.548 112.597C149.042 112.025 145.876 107.091 145.876 107.091C145.876 107.091 145.842 107.062 145.824 107.048C145.407 106.693 145.012 106.313 144.641 105.91C143.666 104.839 143.645 104.321 143.645 104.321C143.645 104.321 143.299 102.293 142.105 99.5382C141.239 97.5062 140.881 94.7448 140.758 93.4335C140.714 92.9663 140.699 92.6833 140.699 92.6833C140.699 92.6833 137.716 94.2012 136.441 94.1056C135.166 94.0101 134.827 94.4912 134.827 94.4912C134.827 94.4912 134.922 94.9792 134.196 95.7625C133.471 96.5458 133.389 96.8497 133.389 96.8497C133.389 96.8497 133.374 97.9004 132.828 98.5309C132.282 99.1613 131.971 99.5938 131.971 99.5938C130.238 102.742 125.988 105.471 125.988 105.471C125.988 105.471 125.83 107.67 124.999 108.528C124.167 109.385 123.703 109.865 123.703 109.865C123.703 109.865 123.17 111.496 122.317 111.765C121.656 112.003 121.018 112.301 120.412 112.658C123.92 108.435 115.238 105.108 115.238 105.108C115.238 105.108 116.69 103.593 117.533 103.555C118.377 103.517 118.851 102.449 118.851 102.449L121.737 100.495C122.163 99.3228 126.241 96.2609 126.241 96.2609L127.735 93.5186C127.806 92.9597 127.908 92.4054 128.042 91.8583C128.229 91.1462 129.561 90.9344 129.561 90.9344C129.561 90.9344 130.131 90.3786 130.237 90.0226C130.342 89.6665 130.477 89.3088 130.477 89.3088C130.477 89.3088 131.42 89.4269 131.501 89.0934C131.583 88.76 132.634 88.4196 132.634 88.4196C133.98 87.2612 138.457 84.7932 138.457 84.7932C138.457 84.7932 140.079 83.845 139.857 83.3292C139.814 83.2244 139.778 83.1171 139.748 83.0079C139.748 82.9975 139.748 82.9888 139.748 82.9801C139.728 82.9141 139.709 82.8446 139.691 82.7717C139.486 81.978 139.261 80.7605 139.261 80.7605C139.261 80.7605 147.141 76.1669 149.727 77.3322C150.482 77.6709 150.922 78.5253 151.152 79.616C151.521 81.3614 151.353 83.7095 151.071 85.5123C150.962 86.2543 150.804 86.9882 150.598 87.7092C149.981 89.6978 149.862 92.6381 149.862 92.6381C149.862 92.6381 149.78 98.2426 149.581 99.6215C149.5 100.263 149.602 100.915 149.876 101.501C149.966 101.708 150.078 101.904 150.21 102.088C150.21 102.088 150.068 103.032 151.575 104.771C153.082 106.509 154.783 110.549 154.783 110.549C154.783 110.549 156.728 113.726 156.721 114.214C156.714 114.702 157.227 116.298 157.227 116.298C157.227 116.298 158.642 117.263 158.476 118.158C158.309 119.052 159.969 120.763 159.969 120.763C159.969 120.763 159.9 120.733 160 120.864Z" fill="#BDD2E8"/>
<path opacity="0.1" d="M139.048 84.7619C139.048 84.7619 140.802 85.54 140.945 86.4685C141.088 87.3969 139.048 84.7619 139.048 84.7619Z" fill="black"/>
<path opacity="0.1" d="M133.108 90.4139L134.286 91.4286L133.675 89.5853L132.381 89.5238L133.108 90.4139Z" fill="black"/>
<path opacity="0.1" d="M131.429 92.381C131.55 92.465 132.924 95.2061 133.292 95.2379C133.66 95.2696 131.429 92.381 131.429 92.381Z" fill="black"/>
<path opacity="0.1" d="M151.145 85.9756C151.04 86.7283 150.888 87.4728 150.69 88.2042C150.096 90.2213 149.981 93.2038 149.981 93.2038C149.981 93.2038 149.903 98.8888 149.711 100.288C149.632 100.939 149.731 101.6 149.994 102.194C149.494 102.245 148.566 102.398 147.932 102.83C147.04 103.439 147.557 105.109 147.557 105.109C147.557 105.109 146.272 105.927 144.955 106.667C144.016 105.58 143.996 105.055 143.996 105.055C143.996 105.055 143.663 102.997 142.514 100.203C141.68 98.1419 141.335 95.3408 141.217 94.0107C141.717 92.7775 142.542 90.8784 143.098 90.0592C143.686 89.1907 142.984 86.5623 142.494 85.0243L142.359 84.9274L140.747 83.7841L140.257 83.4318L140 83.2556L140.195 83.1992L151.23 80C151.578 81.7705 151.416 84.1523 151.145 85.9756Z" fill="black"/>
<path d="M139.048 82.5311L139.806 83.0498L141.44 84.1717L141.579 84.2668C142.076 85.7761 142.789 88.3554 142.19 89.2077C141.325 90.4438 139.821 94.1936 139.821 94.1936C139.821 94.1936 142.359 104.625 141.344 106.266C140.328 107.906 146.719 103.982 146.719 103.982C146.719 103.982 146.196 102.343 147.102 101.745C148.007 101.147 149.53 101.093 149.53 101.093C149.53 101.093 150.729 100.882 150.783 100.628C150.849 100.342 150.991 100.08 151.193 99.8709C151.42 99.6185 150.541 94.8159 151.008 93.5746C151.475 92.3334 150.408 86.6353 150.408 86.6353C150.458 86.2837 150.651 85.97 150.939 85.7709C151.073 85.6767 151.22 85.6044 151.376 85.5565L151.472 85.5288C151.53 85.5116 151.591 85.496 151.641 85.4839C152.369 85.2989 153.164 85.1381 153.333 84.7924L153.164 84.5296L152.272 83.1224C152.254 82.9849 152.263 82.845 152.298 82.7109C152.298 82.6833 152.308 82.6539 152.311 82.6262C152.442 81.729 151.43 80.6398 151.43 80.6398C151.385 80.384 151.359 80.1251 151.352 79.8653V79.8567C151.331 79.5822 151.368 79.3063 151.46 79.0476L139.048 82.5311Z" fill="#653C5B"/>
<path opacity="0.1" d="M141.906 83.8108C141.812 83.7884 147.703 84.027 149.524 86.6666C149.524 86.6727 149.589 85.712 141.906 83.8108Z" fill="black"/>
<path opacity="0.1" d="M145.714 88.7479C145.714 88.7479 146.99 96.8464 146.707 98.2576C146.424 99.6688 148.194 98.759 148.194 98.759C148.194 98.759 149.999 87.0041 145.714 88.7479Z" fill="black"/>
<path opacity="0.1" d="M153.333 84.6827C153.321 84.6536 153.307 84.6253 153.291 84.5981C152.899 83.9319 152.089 83.7933 152.226 82.9435C152.226 82.9093 152.239 82.8715 152.247 82.8337C152.277 82.7003 152.284 82.5626 152.267 82.4268C152.173 81.5699 151.337 80.6769 151.337 80.6769C151.272 80.3057 151.247 79.9284 151.261 79.5517C151.266 79.3572 151.308 79.1657 151.387 78.9882C151.436 78.9004 151.431 78.792 151.374 78.7091C151.158 78.3365 150.198 78.0952 150.198 78.0952L143.695 79.1412C142.927 79.4077 142.194 79.6813 141.525 79.9424C139.518 80.7201 138.095 81.3664 138.095 81.3664L138.143 81.5591C138.186 81.7391 138.257 82.0182 138.344 82.3404C138.372 82.452 138.91 82.3206 138.943 82.4394L139.142 82.8823L140.578 83.2856C140.578 83.2856 140.695 83.5827 140.856 84.0507C140.856 84.0777 140.876 84.1066 140.884 84.1354L141.002 84.1516C143.715 84.49 147.473 85.0283 150.814 85.7143L153.333 84.6827Z" fill="black"/>
<path d="M151.336 85.6858L151.235 85.7143C147.746 84.9814 143.713 84.4103 140.877 84.0617C140.7 83.5511 140.573 83.2238 140.573 83.2238L138.439 82.6296L138.38 82.4233C138.278 82.0515 138.193 81.7117 138.143 81.516L138.095 81.3257C138.095 81.3257 139.511 80.6871 141.516 79.9204C142.184 79.6624 142.916 79.3867 143.683 79.127L150.167 78.0952C150.404 78.1564 150.635 78.238 150.858 78.3389C151.189 78.4937 151.49 78.7143 151.353 78.9776C151.086 79.497 151.306 80.6533 151.306 80.6533C151.306 80.6533 152.435 81.8487 152.213 82.788C151.992 83.7272 152.849 83.8464 153.256 84.5331C153.663 85.2197 152.382 85.4118 151.336 85.6858Z" fill="#653C5B"/>
<path d="M146.667 57.8311C146.667 57.8311 138.449 58.4758 139.392 57.7509C139.863 57.3885 139.539 56.3097 139.095 55.3227C138.8 54.6796 138.466 54.0545 138.095 53.4505C138.095 53.4505 144.341 51.687 143.672 52.689C143.473 52.9846 143.653 53.5541 144.013 54.2104C144.849 55.7769 146.667 57.8311 146.667 57.8311Z" fill="#D17483"/>
<path opacity="0.1" d="M143.809 54.5166C143.644 54.7479 143.217 54.4719 143.01 54.6624C142.289 55.3272 141.605 56.2077 140.62 56.1902C140.084 56.1806 139.554 56.0486 139.061 55.8015C138.776 55.053 138.454 54.3254 138.095 53.6225C138.095 53.6225 144.131 51.5737 143.484 52.74C143.293 53.0899 143.466 53.7527 143.809 54.5166Z" fill="black"/>
<path d="M144.761 51.014C144.736 52.7473 143.67 54.2948 142.059 54.935C140.448 55.5752 138.61 55.1819 137.402 53.9385C136.194 52.6952 135.855 50.8466 136.541 49.2549C137.228 47.6632 138.805 46.6419 140.539 46.6671C141.676 46.6796 142.762 47.1456 143.555 47.9617C144.347 48.7778 144.782 49.8765 144.761 51.014Z" fill="#D17483"/>
<path opacity="0.1" d="M151.412 78.9861C150.737 78.994 150.064 78.9288 149.405 78.792C148.354 78.5696 147.464 79.4355 147.464 79.4355C147.464 79.4355 145.42 80.1699 144.491 80.0195C143.563 79.8692 139.492 81.8437 139.492 81.8437L139.322 81.9047C139.223 81.5775 139.141 81.2784 139.094 81.1062L139.048 80.9387C139.048 80.9387 140.41 80.3765 142.34 79.7017C142.982 79.4747 143.687 79.232 144.425 79.0034L150.666 78.0952C150.894 78.1491 151.116 78.2209 151.33 78.3097C151.422 78.5246 151.45 78.758 151.412 78.9861Z" fill="black"/>
<path opacity="0.1" d="M118.095 63.5606L116.225 63.8095C116.17 62.5402 116.181 61.2677 116.256 60C116.967 60.4833 117.446 60.864 117.446 60.864L118.095 63.5606Z" fill="black"/>
<path d="M144.355 55.2381C144.355 55.2381 143.111 55.6348 142.411 55.9116C141.712 56.1885 138.2 56.4988 138.2 56.4988C138.192 56.7453 138 56.9454 137.756 56.9607C137.316 57.0048 135.917 57.5302 135.917 57.5302C135.917 57.5302 133.817 58.6163 132.543 58.9619C131.27 59.3075 130.711 59.0131 130.711 59.0131C130.711 59.0131 130.57 59.9458 129.137 59.4309C127.704 58.9161 127.511 59.4591 127.511 59.4591C127.511 59.4591 123.464 59.3481 120.513 59.7465C117.561 60.145 116.282 59.8664 116.282 59.8664C116.282 59.8664 115.899 64.5424 116.702 64.7575C116.803 64.7857 119.821 64.7769 120.614 65.1524C121.407 65.528 123.118 64.9761 123.118 64.9761C123.118 64.9761 123.559 64.8792 124.224 65.2794C124.888 65.6796 128.498 65.6796 128.498 65.6796C128.498 65.6796 128.755 65.7343 129.679 66.0093C130.603 66.2844 132.23 66.0464 132.23 66.0464L136.039 66.5489C136.039 66.5489 136.31 69.2554 136.013 70.2374C135.715 71.2195 135.953 76.0559 135.953 76.0559C135.953 76.0559 136.828 81.9414 136.582 82.6396C136.335 83.3378 139.166 82.1318 139.166 82.1318C139.166 82.1318 143.351 79.9067 144.301 80.076C145.251 80.2452 147.354 79.4201 147.354 79.4201C147.354 79.4201 148.271 78.445 149.351 78.6954C150.026 78.8477 150.718 78.9187 151.41 78.907C151.41 78.907 151.714 77.4312 149.862 77.2214C149.862 77.2214 149.044 76.6642 149.832 75.6627C150.619 74.6613 149.372 72.1064 149.372 72.1064C149.372 72.1064 148.974 71.0608 149.186 70.6218C149.398 70.1828 148.939 66.332 148.939 66.332C148.939 66.332 148.939 62.7722 148.163 61.2523C147.386 59.7324 146.856 57.0207 145.96 56.6222C145.064 56.2237 144.355 55.2381 144.355 55.2381Z" fill="#DCE6F2"/>
<path opacity="0.1" d="M140 67.619C140 67.619 145.127 70.048 146.505 72.0059C147.883 73.9637 140 67.619 140 67.619Z" fill="black"/>
<path opacity="0.1" d="M141.905 71.4286C141.905 71.4286 148.017 75.1418 147.599 76.0837C147.18 77.0255 141.905 71.4286 141.905 71.4286Z" fill="black"/>
<path opacity="0.1" d="M142.857 74.2857C142.857 74.2857 145.244 75.4303 145.675 76.0805C146.106 76.7307 142.857 74.2857 142.857 74.2857Z" fill="black"/>
<path opacity="0.1" d="M132.381 60C132.381 60 136.873 62.6002 136.101 63.6554C135.33 64.7107 132.381 60 132.381 60Z" fill="black"/>
<path opacity="0.1" d="M129.685 61.9048C129.685 61.9048 130.456 64.3086 130.476 64.7216C130.496 65.1346 129.051 62.2457 129.685 61.9048Z" fill="black"/>
<path opacity="0.1" d="M126.667 61.9048C126.667 62.0399 129.439 64.146 128.295 64.7001C127.151 65.2541 126.667 61.9048 126.667 61.9048Z" fill="black"/>
<path opacity="0.1" d="M128.571 94.2857C128.677 94.4063 129.05 95.586 130.198 96.1135C131.346 96.6409 128.571 94.2857 128.571 94.2857Z" fill="black"/>
<path opacity="0.1" d="M120.978 101.905C120.962 102.743 120.785 105.412 121.643 105.7C122.501 105.988 120.978 101.905 120.978 101.905Z" fill="black"/>
<path opacity="0.1" d="M122.111 103.81C122.111 103.81 124.447 106.952 123.64 107.488C122.833 108.024 121.905 106.741 121.905 106.741L122.111 103.81Z" fill="black"/>
<path opacity="0.1" d="M150.476 110.396C151.32 110.519 152.178 110.572 153.037 110.552C154.427 110.516 150.476 110.396 150.476 110.396Z" fill="black"/>
<path opacity="0.1" d="M150.476 109.533C150.476 109.533 152.505 109.894 153.233 109.521C153.962 109.148 150.476 109.533 150.476 109.533Z" fill="black"/>
<path opacity="0.1" d="M149.524 106.645C149.524 106.645 151.86 106.851 152.334 105.981C152.808 105.111 149.524 106.645 149.524 106.645Z" fill="black"/>
<path opacity="0.1" d="M148.571 105.803C148.571 105.803 150.988 106.112 151.393 105.682C151.799 105.252 148.571 105.803 148.571 105.803Z" fill="black"/>
<path opacity="0.1" d="M146.667 101.905C146.667 101.905 149.223 103.047 149.506 103.699C149.789 104.351 146.667 101.905 146.667 101.905Z" fill="black"/>
<path opacity="0.1" d="M144.762 50.9892C144.745 52.28 144.142 53.4931 143.122 54.2857C143.11 54.2637 143.1 54.2418 143.09 54.2198C142.904 53.8223 142.857 53.3741 142.684 52.9783C142.634 52.8274 142.525 52.7027 142.383 52.6316C142.109 52.525 141.836 52.7753 141.655 53.0003C141.474 53.2252 141.205 53.4789 140.93 53.3792C140.777 53.3059 140.656 53.1788 140.591 53.0223C140.309 52.5149 140.016 51.9787 139.997 51.4002C140.018 51.1154 140.021 50.8296 140.007 50.5444C139.935 50.0471 139.561 49.6294 139.131 49.3486C138.682 49.0904 138.216 48.8643 137.735 48.672C137.517 48.5804 137.317 48.4522 137.143 48.2932C138.273 46.8572 140.194 46.3014 141.917 46.9116C143.64 47.5217 144.783 49.162 144.757 50.9892H144.762Z" fill="black"/>
<path d="M136.209 48.0373C136.096 48.2802 136.525 48.258 136.711 48.4632C136.913 48.6592 137.158 48.8131 137.429 48.9148C137.953 49.1103 138.462 49.3389 138.952 49.599C139.423 49.8846 139.829 50.3054 139.909 50.81C139.923 51.0979 139.92 51.3863 139.899 51.6738C139.92 52.2605 140.237 52.7993 140.546 53.3159C140.618 53.4731 140.749 53.6011 140.915 53.6768C141.217 53.776 141.507 53.5211 141.707 53.2936C141.906 53.0661 142.203 52.813 142.502 52.919C142.657 52.9915 142.774 53.1175 142.829 53.2697C143.014 53.6751 143.069 54.1249 143.272 54.5269C143.475 54.9288 143.911 55.2915 144.398 55.2316C144.694 55.1826 144.948 55.0095 145.087 54.7629C145.219 54.5223 145.282 54.2544 145.271 53.9847C145.255 53.7742 145.262 53.5627 145.292 53.3535C145.367 53.0114 145.617 52.7411 145.831 52.4589C146.271 51.8955 146.551 51.2384 146.645 50.5483C146.734 49.8529 146.549 49.1511 146.126 48.571C145.912 48.2887 145.631 48.039 145.497 47.7157C145.436 47.5703 145.408 47.4147 145.36 47.2642C145.067 46.4177 144.26 45.813 143.305 45.7247C142.534 45.658 141.769 45.9334 140.994 45.9249C140.095 45.9163 139.166 45.5314 138.328 45.8239C137.95 45.9774 137.617 46.2119 137.355 46.5081C136.902 46.9712 136.518 47.489 136.215 48.0476" fill="#653C5B"/>
<path d="M117.633 113.322L117.535 113.398C117.535 113.398 117.901 114.056 117.039 114.989C116.635 115.422 115.78 115.224 114.986 114.894C114.038 114.49 113.175 113.894 112.447 113.141C110.962 111.619 107.947 108.409 107.648 107.129C107.479 106.39 108.074 106.185 108.921 106.229C110.021 106.287 111.541 106.76 112.306 107.044C113.671 107.534 115.507 106.363 115.507 106.363C115.56 106.117 115.644 105.879 115.756 105.656C115.95 105.217 116.323 104.892 116.772 104.772C117.432 104.632 117.772 105.981 117.93 106.963C117.93 107.002 117.942 107.042 117.948 107.081C118.023 107.571 118.052 107.944 118.052 107.944C119.225 107.859 119.724 109.638 119.661 110.549C119.599 111.46 120 111.467 120 111.467L117.633 113.322Z" fill="#FFD6DB"/>
<path d="M117.037 113.488C117.037 113.488 117.419 114.113 116.518 115.001C116.095 115.413 115.201 115.226 114.371 114.91C113.379 114.527 112.476 113.96 111.715 113.244C110.161 111.797 107.01 108.745 106.697 107.528C106.52 106.825 107.143 106.63 108.028 106.672C108.104 107.382 108.295 108.353 108.763 108.869C109.559 109.747 111.834 112.703 114.679 112.736C115.552 112.725 116.409 112.959 117.143 113.409L117.037 113.488Z" fill="#C8A9B4"/>
<path opacity="0.1" d="M112.381 110.476C112.381 110.476 114.968 107.615 117.143 108.906C117.143 108.906 115.227 108.686 112.381 110.476Z" fill="black"/>
<path opacity="0.1" d="M115.238 110.505C115.238 110.505 118.359 111.421 118.98 111.429C119.601 111.436 115.771 110.28 115.238 110.505Z" fill="black"/>
<path opacity="0.1" d="M152.381 116.19C152.381 116.19 156.066 116.276 156.184 117.213C156.302 118.15 154.809 118.095 154.809 118.095L152.381 116.19Z" fill="black"/>
<path d="M159.933 124.529L159.944 124.64C159.944 124.64 160.645 124.66 160.933 125.755C161.068 126.275 160.478 126.842 159.812 127.316C159.012 127.868 158.105 128.265 157.142 128.483C155.189 128.934 151.133 129.794 149.979 129.441C149.31 129.234 149.455 128.674 149.92 128.036C150.525 127.207 151.675 126.247 152.287 125.781C153.366 124.948 153.387 122.98 153.387 122.98C153.387 122.98 152.428 122.154 152.778 121.258C153.128 120.361 155.92 121.726 155.92 121.726C156.452 120.775 158.102 121.206 158.786 121.677C159.469 122.149 159.678 121.84 159.678 121.84L159.933 124.529Z" fill="#FFD6DB"/>
<path d="M159.944 125.812C159.944 125.812 160.645 125.832 160.933 126.877C161.068 127.374 160.478 127.916 159.812 128.368C159.012 128.895 158.105 129.274 157.142 129.482C155.189 129.913 151.133 130.735 149.979 130.397C149.31 130.2 149.455 129.665 149.92 129.055C150.543 129.328 151.437 129.643 152.093 129.552C153.205 129.386 156.756 129.148 158.172 127.149C158.59 126.524 159.202 126.025 159.933 125.714L159.944 125.812Z" fill="#C8A9B4"/>
<path opacity="0.1" d="M154.309 127.619C154.309 127.619 153.933 124.947 156.19 123.81C156.19 123.81 154.841 125.088 154.309 127.619Z" fill="black"/>
<path opacity="0.1" d="M155.238 124.762C155.238 124.762 156.9 123.281 157.126 122.907C157.351 122.534 155.289 124.359 155.238 124.762Z" fill="black"/>
<path opacity="0.1" d="M151.429 80.9524C151.429 80.9524 149.383 82.3189 147.895 81.7782C146.406 81.2374 151.429 80.9524 151.429 80.9524Z" fill="black"/>
<path opacity="0.1" d="M152.381 82.8571C152.381 82.8571 151.953 84.0568 149.278 83.7632C146.604 83.4696 152.381 82.8571 152.381 82.8571Z" fill="black"/>
<g opacity="0.1">
<path opacity="0.1" d="M145.347 52.3756L145.446 52.2363C145.518 52.131 145.587 52.022 145.651 51.9113C145.54 52.0594 145.439 52.2144 145.347 52.3756Z" fill="black"/>
<path opacity="0.1" d="M144.36 54.697C143.896 54.7596 143.478 54.3792 143.284 53.9613C143.09 53.5435 143.041 53.0685 142.861 52.6488C142.808 52.4899 142.696 52.3584 142.548 52.2828C142.263 52.172 141.979 52.4363 141.788 52.6738C141.598 52.9113 141.321 53.1774 141.032 53.0738C140.873 52.9957 140.748 52.8618 140.679 52.697C140.383 52.1613 140.079 51.5953 140.06 50.9845C140.077 50.6836 140.077 50.3819 140.06 50.081C139.986 49.5542 139.596 49.1149 139.146 48.8185C138.697 48.522 138.18 48.3363 137.691 48.1042C137.433 47.998 137.199 47.8373 137.007 47.6328C136.831 47.4185 136.418 47.4417 136.527 47.1881C136.608 47.0238 136.704 46.8649 136.792 46.7078C136.589 46.9977 136.407 47.302 136.247 47.6185C136.139 47.872 136.548 47.8488 136.727 48.0631C136.92 48.2677 137.154 48.4284 137.413 48.5345C137.913 48.7386 138.399 48.9773 138.868 49.2488C139.317 49.547 139.705 49.9863 139.781 50.5131C139.795 50.8136 139.792 51.1147 139.772 51.4149C139.792 52.0274 140.095 52.5899 140.39 53.1292C140.459 53.2934 140.584 53.427 140.742 53.506C141.032 53.6095 141.309 53.3435 141.499 53.106C141.69 52.8685 141.974 52.6042 142.259 52.7149C142.407 52.7905 142.519 52.9221 142.571 53.081C142.748 53.5042 142.801 53.9738 142.995 54.3935C143.189 54.8131 143.605 55.1917 144.071 55.1292C144.353 55.078 144.596 54.8973 144.728 54.6399C144.757 54.5863 144.781 54.5308 144.802 54.4738C144.679 54.5902 144.526 54.6678 144.36 54.697Z" fill="black"/>
</g>
<path opacity="0.1" d="M139.048 57.1429C139.048 57.1429 141.058 57.0557 142.396 57.0955C143.734 57.1352 145.714 56.1905 145.714 56.1905" fill="black"/>
<path d="M55.2245 70.7236C55.0212 69.7058 53.1085 69.8697 51.7183 70.1319C51.6008 70.1543 51.4869 70.1768 51.3782 70.2009L51.4781 69.7921L50.8242 69.5264C49.5392 69.0045 48.1947 68.6379 46.82 68.4344C44.8075 68.1376 41.6168 67.5011 39.655 66.2676C37.8721 65.1462 37.1568 64.8219 36.659 64.52C36.659 64.4303 36.659 64.3475 36.659 64.256C36.659 63.7557 36.6292 63.2968 36.5906 62.888C36.554 62.512 36.4801 62.1405 36.3697 61.7787C35.9524 60.4176 35.0128 59.9811 34.0713 59.1289C33.4548 58.5573 32.756 58.0783 31.9974 57.7073C32.0745 57.2567 32.2088 56.8174 32.3971 56.3997C32.4234 56.3359 32.4515 56.2737 32.4778 56.2099C32.4778 56.2013 32.4778 56.1944 32.49 56.1858C32.5181 56.1219 32.5461 56.0581 32.5742 55.9977C33.96 55.2563 34.8249 53.8305 34.8305 52.2783C34.8303 51.1549 34.3732 50.0783 33.5612 49.2886C33.4934 49.223 33.4233 49.1592 33.3508 49.0971L33.5542 49.0315C33.9872 48.8797 34.4588 48.4622 34.3326 48.1069H34.2695C34.2663 48.0816 34.2604 48.0567 34.2519 48.0327C34.0596 48.0263 33.8748 47.9578 33.726 47.8377C33.5244 47.5928 33.463 47.2253 33.0931 46.882C33.01 46.7945 32.9178 46.7158 32.8179 46.6474C32.5482 46.4685 32.2447 46.3447 31.9255 46.2834C31.9518 46.3006 31.9799 46.3144 32.0062 46.3334L32.0605 46.3748C31.326 46.2023 30.4967 46.2282 29.799 45.9332C29.6312 45.8598 29.4699 45.7726 29.3169 45.6727L29.408 45.6968C29.0311 45.4829 28.6928 45.2086 28.3018 45.0068C28.0851 44.8993 27.8562 44.8176 27.6199 44.7635L27.7952 44.8653C26.7582 44.6291 25.6685 44.8012 24.7588 45.3449C23.6806 45.9694 22.9162 46.9717 22.3482 48.0258C21.3935 49.7952 20.9279 51.7804 20.9983 53.7826C21.0334 54.7487 21.1912 55.751 20.823 56.6585C20.518 57.4175 19.8781 58.0213 19.4959 58.7493C18.0215 61.5648 20.7371 65.2221 19.0734 67.9444C18.4721 68.9295 17.3957 69.5816 16.6629 70.4873C15.93 71.393 15.6653 72.8577 16.6418 73.5374C17.3431 74.0273 18.3406 73.8686 19.1768 74.117C19.0341 74.9654 18.6151 75.7452 17.983 76.339L17.8462 76.3131C17.8147 76.3425 17.7849 76.3735 17.7515 76.4011L17.8813 76.4339L17.8322 76.4805C18.7469 76.7411 19.6872 76.9054 20.6372 76.9704C21.4804 77.0291 22.3728 76.998 23.1056 76.6047C23.4768 76.3977 23.8041 76.1224 24.0698 75.7939C24.0698 75.9664 24.0821 76.1182 24.0926 76.2752C24.1185 76.9101 24.2102 77.5407 24.3661 78.1573C25.1778 81.0539 22.6129 83.3242 22.6129 83.3242C21.9847 84.5829 21.6892 85.9773 21.7539 87.3783C21.8014 88.2265 21.9787 89.0629 22.2799 89.8591C22.3044 89.9229 22.3272 89.985 22.3517 90.0454C22.3991 90.1661 22.4499 90.2834 22.499 90.3904C22.5744 90.5629 22.6498 90.713 22.7251 90.8545C22.7742 90.9511 22.8233 91.0408 22.8707 91.1236C23.0351 91.4217 23.2239 91.7061 23.4352 91.9741C23.6946 91.8004 23.9541 91.6365 24.2135 91.4824C24.2135 91.5808 24.2135 91.6843 24.2135 91.7912C24.2276 92.8591 24.1189 94.2064 24.1189 94.2064C24.1189 94.2064 23.3054 97.065 23.2248 97.8879C23.1441 98.7108 22.8303 103.8 22.8303 103.8C22.8303 103.8 21.7329 107.09 19.7028 109.086C17.6727 111.082 18.125 116.799 18.125 116.799C18.125 116.799 16.7032 121.614 17.1905 121.849C17.2693 121.873 17.3531 121.878 17.4342 121.862V122.057C16.5577 122.656 15.8915 123.141 15.8915 123.141C15.8915 123.141 15.6478 127.095 15.3217 127.859C14.9956 128.623 15.7284 129.524 15.7284 129.524C15.7284 129.524 22.9601 129.327 23.5894 129.287C23.8787 129.27 24.8429 128.961 25.8404 128.525C26.6977 128.337 29.2853 127.345 30.2232 126.422C30.3622 126.299 30.4744 126.15 30.5528 125.984C30.9999 124.887 26.9572 125.709 25.8597 125.709C24.7623 125.709 24.6413 124.887 24.1329 124.26C23.6245 123.634 23.9909 122.597 23.9909 122.597L23.8857 119.665L24.3678 119.473C24.3678 119.473 25.0182 116.966 26.0736 115.754C27.129 114.541 28.9996 109.919 29.0399 109.685C29.0802 109.45 29.1205 109.019 29.8919 107.959C30.6633 106.9 31.4206 104.637 31.4206 104.637C31.4206 104.637 33.1737 99.2335 34.5079 96.4543C35.3266 94.755 35.7824 91.7446 36.0121 89.6572C36.2643 89.725 36.5125 89.8068 36.7554 89.9022C36.7554 89.9022 37.1305 87.537 37.2813 84.8371C37.3708 83.458 37.3597 82.0743 37.248 80.6968C37.0341 78.4541 35.7035 74.1118 35.7824 70.0715C36.1032 70.2751 36.4153 70.4683 36.6958 70.6408C36.6958 70.5391 36.708 70.439 36.7151 70.3372C37.4338 70.7771 37.9528 71.079 37.9528 71.079C37.9528 71.079 42.2584 73.427 46.0364 73.4666C49.8144 73.5063 50.4648 73.9359 50.4648 73.9359L50.7032 72.9663L51.0416 72.9042C52.6334 72.6041 55.4577 71.8916 55.2245 70.7236Z" fill="url(#paint1_linear_4_867)"/>
<path d="M35.3359 48.6434L35.1403 48.4995C35.1757 48.5396 35.203 48.5861 35.2206 48.6365L35.3359 48.6434Z" fill="url(#paint2_linear_4_867)"/>
<path d="M34.3067 47.7309H34.4237L34.3136 47.6494H34.3433L34.1477 47.5071C34.1823 47.5469 34.209 47.5928 34.2263 47.6425H34.27C34.2859 47.6703 34.2982 47.7 34.3067 47.7309Z" fill="url(#paint3_linear_4_867)"/>
<path d="M29.5238 55.2381H25.7143V60H29.5238V55.2381Z" fill="#965D7B"/>
<path opacity="0.1" d="M29.5238 55.2381H25.7143V60H29.5238V55.2381Z" fill="black"/>
<path d="M18.0952 122.857H20.9524V119.048H18.0952V122.857Z" fill="#E8F4FF"/>
<path d="M26.7635 55.3851C27.4789 55.6718 28.2847 57.1899 28.3242 58.4577C28.3406 59.0293 27.7009 60 27.7009 60L28.3587 59.9188C28.6958 59.8722 29.1333 59.81 29.597 59.7375C29.9851 59.6753 30.3913 59.6062 30.7729 59.5319C31.8204 59.3281 32.6772 59.0846 32.442 58.8601C32.3286 58.7513 32.299 58.5423 32.3286 58.2763C32.3998 57.8295 32.5224 57.3933 32.6936 56.9775C32.7446 56.8411 32.8005 56.7063 32.8581 56.5785C33.0998 55.9982 33.3334 55.5422 33.3334 55.5422C33.3334 55.5422 31.0952 55.3695 29.2221 55.2884C28.5824 55.259 27.9838 55.24 27.5266 55.2383H27.3473C26.78 55.2348 26.507 55.2832 26.7635 55.3851Z" fill="#FFC1C7"/>
<path d="M36.1905 87.619C36.1905 87.619 35.8484 94.019 34.5744 96.8403C33.3003 99.6616 31.6483 105.149 31.6483 105.149C31.6483 105.149 30.9164 107.455 30.1845 108.528C29.4525 109.601 29.4149 110.039 29.3756 110.278C29.3362 110.516 27.5662 115.207 26.5641 116.439C25.562 117.672 24.948 120.216 24.948 120.216C24.948 120.216 20.5581 122.122 20.0964 121.884C19.6346 121.646 20.9822 116.764 20.9822 116.764C20.9822 116.764 20.5581 110.959 22.4837 108.932C24.4093 106.905 25.4491 103.567 25.4491 103.567C25.4491 103.567 25.7569 98.3975 25.8339 97.5642C25.9108 96.7308 26.6804 93.8266 26.6804 93.8266C26.6804 93.8266 26.9113 90.7652 26.6428 90.1702C26.3743 89.5752 36.1905 87.619 36.1905 87.619Z" fill="#575A89"/>
<path opacity="0.05" d="M36.1905 87.619C36.1905 87.619 35.8484 94.019 34.5744 96.8403C33.3003 99.6616 31.6483 105.149 31.6483 105.149C31.6483 105.149 30.9164 107.455 30.1845 108.528C29.4525 109.601 29.4149 110.039 29.3756 110.278C29.3362 110.516 27.5662 115.207 26.5641 116.439C25.562 117.672 24.948 120.216 24.948 120.216C24.948 120.216 20.5581 122.122 20.0964 121.884C19.6346 121.646 20.9822 116.764 20.9822 116.764C20.9822 116.764 20.5581 110.959 22.4837 108.932C24.4093 106.905 25.4491 103.567 25.4491 103.567C25.4491 103.567 25.7569 98.3975 25.8339 97.5642C25.9108 96.7308 26.6804 93.8266 26.6804 93.8266C26.6804 93.8266 26.9113 90.7652 26.6428 90.1702C26.3743 89.5752 36.1905 87.619 36.1905 87.619Z" fill="black"/>
<path d="M24.2013 120.141L24.3159 123.467C24.3159 123.467 23.9788 124.492 24.4474 125.101C24.9161 125.711 25.0358 126.524 26.0607 126.524C27.0857 126.524 30.8635 125.716 30.4438 126.794C30.024 127.872 26.4771 129.256 25.8921 129.293C25.3072 129.331 18.5523 129.524 18.5523 129.524C18.5523 129.524 17.8695 128.641 18.173 127.891C18.4764 127.141 18.704 123.255 18.704 123.255C18.704 123.255 23.9737 119.203 24.2013 120.141Z" fill="#444053"/>
<path opacity="0.05" d="M24.2024 120.142L24.3154 123.469C24.3154 123.469 23.9783 124.493 24.4485 125.101C24.9188 125.709 25.0368 126.525 26.0616 126.525C27.0864 126.525 30.862 125.717 30.444 126.793C30.026 127.869 26.4779 129.254 25.893 129.293C25.3082 129.333 18.5491 129.524 18.5491 129.524C18.5491 129.524 17.8749 128.639 18.1699 127.89C18.4648 127.14 18.6941 123.257 18.6941 123.257C18.6941 123.257 23.9749 119.199 24.2024 120.142Z" fill="black"/>
<path d="M18.1897 121.884C18.6516 122.122 23.0378 120.207 23.0378 120.207C23.0378 120.207 23.6537 117.664 24.6562 116.432C25.6586 115.2 27.4292 110.51 27.4668 110.272C27.5045 110.034 27.5438 109.596 28.276 108.523C29.0082 107.45 29.7404 105.144 29.7404 105.144C29.7404 105.144 31.3963 99.6603 32.6674 96.8397C33.5501 94.8805 33.9863 91.1915 34.1728 89.1281C34.2532 88.2174 34.2857 87.619 34.2857 87.619C34.2857 87.619 24.4629 89.5606 24.7331 90.1625C24.8221 90.3602 24.8563 90.8279 24.8614 91.368C24.8751 92.4518 24.7708 93.8179 24.7708 93.8179C24.7708 93.8179 24.001 96.7197 23.924 97.5546C23.847 98.3894 23.5391 103.556 23.5391 103.556C23.5391 103.556 22.499 106.894 20.5727 108.92C18.6465 110.946 19.0707 116.75 19.0707 116.75C19.0707 116.75 17.7347 121.646 18.1897 121.884Z" fill="#575A89"/>
<path opacity="0.1" d="M28.5714 95.6158C28.5714 95.6158 26.5196 94.6832 25.81 95.749C25.1003 96.8149 28.5714 95.6158 28.5714 95.6158Z" fill="black"/>
<path opacity="0.1" d="M28.5714 97.3833C28.5714 97.3833 24.8071 96.668 24.7623 97.7051C24.7175 98.7423 28.5714 97.3833 28.5714 97.3833Z" fill="black"/>
<path opacity="0.1" d="M26.6667 100C26.6667 100 25.5725 101.297 24.8832 100.864C24.194 100.431 26.6667 100 26.6667 100Z" fill="black"/>
<path opacity="0.1" d="M23.8095 104.762C23.8095 104.762 26.1741 105.689 25.6341 106.661C25.0941 107.634 24.6794 107.765 24.473 107.498C24.2666 107.232 23.8095 104.762 23.8095 104.762Z" fill="black"/>
<path d="M22.2976 120.142L22.4122 123.469C22.4122 123.469 22.0751 124.493 22.5453 125.101C23.0154 125.709 23.1334 126.525 24.158 126.525C25.1825 126.525 28.9572 125.717 28.5393 126.793C28.1214 127.869 24.5742 129.254 23.9894 129.293C23.4047 129.333 16.6474 129.524 16.6474 129.524C16.6474 129.524 15.9649 128.639 16.2682 127.89C16.5715 127.14 16.799 123.257 16.799 123.257C16.799 123.257 22.0701 119.199 22.2976 120.142Z" fill="#444053"/>
<path opacity="0.1" d="M20.9524 124.262C20.9524 124.262 20.8519 125.365 18.6902 124.294C16.5285 123.223 20.9524 124.262 20.9524 124.262Z" fill="black"/>
<path opacity="0.1" d="M17.2084 125.714C17.2084 125.714 16.7049 126.339 18.4895 126.623C20.2741 126.907 17.2084 125.714 17.2084 125.714Z" fill="black"/>
<path opacity="0.1" d="M17.1429 124.762C17.1429 124.762 19.3261 126.667 20 126.667L17.1429 124.762Z" fill="black"/>
<path opacity="0.1" d="M27.619 55.2388C28.2743 56.8451 29.4752 56.5675 30.9927 57.9343C31.5101 58.4027 32.2061 57.7351 32.7266 57.3749C33.001 56.4509 33.3333 55.6117 33.3333 55.6117C33.3333 55.6117 29.2291 55.2197 27.619 55.2388Z" fill="black"/>
<path d="M26.6667 52.8572C26.6667 55.2239 28.5851 57.1426 30.9518 57.1429C33.3185 57.1432 35.2375 55.2251 35.2381 52.8584C35.2387 50.4917 33.3208 48.5725 30.9542 48.5715C29.8156 48.5659 28.7221 49.0156 27.9169 49.8205C27.1117 50.6254 26.6616 51.7187 26.6667 52.8572Z" fill="#FFC1C7"/>
<path opacity="0.1" d="M24.7674 90.2035C24.856 90.4044 24.8901 90.8797 24.8952 91.4285C28.5703 89.0288 31.9675 88.8655 34.1732 89.1525C34.2533 88.227 34.2857 87.619 34.2857 87.619C34.2857 87.619 24.498 89.5973 24.7674 90.2035Z" fill="black"/>
<path d="M21.9141 87.7223C21.9964 89.4002 22.5638 91.0183 23.5477 92.381C30.4277 87.6254 36.5774 90.2797 36.5774 90.2797C36.5774 90.2797 36.9426 87.8844 37.0855 85.149C37.1714 83.7532 37.1608 82.3532 37.0537 80.9589C36.8297 78.5441 35.3725 73.7216 35.6513 69.4188C35.7748 67.5253 36.5104 65.7605 36.4839 64.3004C36.4839 63.7949 36.4557 63.3299 36.4187 62.916C36.383 62.5353 36.3103 62.159 36.2017 61.7923C35.7959 60.4114 34.8751 59.9711 33.9559 59.108C33.3551 58.5299 32.6713 58.0444 31.9272 57.6673C30.4348 56.9399 28.9282 56.9399 27.6334 57.8522C27.3911 58.024 27.1644 58.2167 26.9559 58.4282C26.6897 58.6998 26.4483 58.9945 26.2344 59.3088C26.1974 59.3599 26.1638 59.4127 26.1303 59.4638C25.9398 59.7615 25.7634 60.3005 25.6011 60.968C25.0031 63.4779 24.6555 67.7913 24.6555 67.7913C24.6555 67.7913 23.9799 73.003 24.1898 76.4728C24.2152 77.1159 24.3044 77.7548 24.4562 78.3803C25.2518 81.3147 22.7485 83.6149 22.7485 83.6149C22.1347 84.8942 21.848 86.3054 21.9141 87.7223Z" fill="#FF6584"/>
<path d="M49.5238 74.2857C49.5238 74.2857 49.9126 74.2142 50.4655 74.0754C51.9108 73.7052 54.4865 72.8428 54.2732 71.4314C54.0895 70.2009 52.3505 70.3986 51.0856 70.7162C50.3392 70.9013 49.7584 71.1369 49.7584 71.1369L49.5238 74.2857Z" fill="#FFC1C7"/>
<path opacity="0.1" d="M28.1123 65.4882C28.9834 66.1486 31.1399 67.9667 32.7974 69.2473C33.7311 69.9683 35.0332 70.8195 35.9927 71.4286C36.1216 69.4546 36.2118 67.5759 36.186 66.0624C35.5341 65.5377 35.3168 64.8553 34.3333 63.7123C32.5912 61.6943 29.4806 60.9861 29.4806 60.9861C27.4125 60.5311 27.2467 64.8204 28.1123 65.4882Z" fill="black"/>
<path opacity="0.1" d="M49.5238 73.3333C49.5238 73.3333 49.998 73.2762 50.6723 73.1653L51.4286 70.4762C50.5182 70.6241 49.8099 70.8123 49.8099 70.8123L49.5238 73.3333Z" fill="black"/>
<path d="M30.3179 60.9838C30.3179 60.9838 33.2202 61.6378 34.8458 63.5278C36.4714 65.4178 35.8768 64.555 39.2174 66.7274C41.0852 67.9412 44.1233 68.5678 46.041 68.8588C47.3515 69.061 48.6321 69.4226 49.8541 69.9356L50.4762 70.1959L49.5087 74.2857C49.5087 74.2857 48.8901 73.8612 45.2918 73.8235C41.6935 73.7858 37.5918 71.4713 37.5918 71.4713C37.5918 71.4713 34.9609 69.8911 33.4127 68.6962C31.8644 67.5012 29.8539 65.8013 29.036 65.1849C28.218 64.5686 28.383 60.5592 30.3179 60.9838Z" fill="#E8F4FF"/>
<path opacity="0.1" d="M25.7143 61.2308C26.2862 61.5194 26.9785 61.4011 27.8067 60.551C30.0352 58.2505 33.7353 60.5423 36.1905 61.9047C35.7894 60.7747 34.8792 60.4125 33.9707 59.7053C31.3377 57.6574 28.3909 57.4048 26.3385 59.8712C26.3019 59.9131 26.2688 59.9564 26.2357 59.9983C26.0439 60.2422 25.8695 60.6838 25.7143 61.2308Z" fill="black"/>
<path d="M25.7143 61.2308C26.2862 61.5194 26.9785 61.4011 27.8067 60.5511C27.8269 60.5285 27.8484 60.5068 27.8713 60.4861C28.19 60.1608 28.6017 59.9063 29.0692 59.7458C29.465 59.615 29.8903 59.5565 30.3159 59.5741C32.2811 59.626 34.5252 60.9797 36.1905 61.9047C35.7894 60.7733 34.8792 60.4125 33.9707 59.7054C33.3768 59.2317 32.701 58.8339 31.9655 58.5249C30.4903 57.9289 29.0012 57.9289 27.7213 58.6764C27.4818 58.8172 27.2578 58.9751 27.0517 59.1483C26.7886 59.3709 26.5499 59.6123 26.3385 59.8699C26.3019 59.9118 26.2688 59.9551 26.2357 59.9969C26.0439 60.2422 25.8695 60.6838 25.7143 61.2308Z" fill="#FF6584"/>
<path opacity="0.1" d="M21.9048 87.136C21.9874 88.682 22.5573 90.1729 23.5455 91.4286C30.4558 87.0467 36.6326 89.4924 36.6326 89.4924C36.6326 89.4924 36.9994 87.2853 37.1429 84.7649C34.5117 84.7438 27.0184 84.8006 24.5041 86.0632C23.6727 86.4881 22.8031 86.847 21.9048 87.136Z" fill="black"/>
<path d="M21.9048 88.0884C21.9874 89.6344 22.5573 91.1253 23.5455 92.381C30.4558 87.9991 36.6326 90.4448 36.6326 90.4448C36.6326 90.4448 36.9994 88.2377 37.1429 85.7173C34.5117 85.6962 27.0184 85.753 24.5041 87.0156C23.6727 87.4405 22.8031 87.7994 21.9048 88.0884Z" fill="#E8F4FF"/>
<path opacity="0.1" d="M35.3333 48.6426L35.1429 48.5003C35.1775 48.5401 35.2042 48.586 35.2215 48.6356L35.3333 48.6426Z" fill="black"/>
<path opacity="0.1" d="M24.8036 76.1905C25.0452 75.9589 25.2624 75.7057 25.452 75.4347C27.1533 73.0704 27.5019 70.0438 26.8427 67.2821C26.6964 66.669 26.5049 66.0202 26.7397 65.4291C27.0612 64.6173 28.0727 64.1943 28.5332 63.4402C29.0949 62.518 28.7048 61.4021 28.479 60.3593C28.479 60.3168 28.4628 60.2777 28.4537 60.237C28.414 60.0484 28.3833 59.8565 28.3598 59.6663C28.2195 58.519 28.3478 57.3567 28.7355 56.2609C28.7554 56.2049 28.7752 56.1488 28.7969 56.0911C28.9257 55.7476 29.0928 55.418 29.2954 55.1077C29.7108 54.4775 30.2924 53.9544 31.0618 53.7693C31.2798 53.744 31.4883 53.6707 31.6704 53.5553C32.1274 53.1799 31.6072 52.5362 31.5043 51.9825C31.3779 51.3337 31.9161 50.7155 32.5518 50.3928C33.0937 50.1193 33.6987 49.997 34.2857 49.8255C32.6835 48.2851 30.0971 48.1464 28.3191 49.5056C26.541 50.8647 26.1571 53.2739 27.4333 55.0635H27.2364C26.6278 55.0635 26.3334 55.1094 26.6097 55.2096C27.3954 55.4915 27.5868 57.5398 27.6302 58.7865C27.3576 59.0484 27.1104 59.3326 26.8915 59.6357C26.8535 59.685 26.8192 59.7359 26.7849 59.7852C26.5898 60.0722 26.4092 60.5919 26.2431 61.2357C25.6308 63.6559 25.275 67.8154 25.275 67.8154C25.275 67.8154 24.5886 72.8445 24.8036 76.1905Z" fill="black"/>
<path d="M34.0928 47.9836C34.4167 48.3626 33.8875 48.8745 33.4062 49.0457C32.739 49.285 32.0187 49.3951 31.3958 49.7322C30.7729 50.0694 30.2473 50.7 30.3676 51.3673C30.472 51.9351 30.9799 52.5902 30.5322 52.985C30.3535 53.1035 30.1493 53.1795 29.9358 53.2069C28.8103 53.4899 28.0971 54.5467 27.7166 55.5932C27.2201 56.9581 27.104 58.4296 27.3804 59.8539C27.5945 60.9597 28.0298 62.1633 27.4582 63.1486C27.007 63.926 26.0159 64.3592 25.7009 65.1943C25.4709 65.8022 25.6584 66.4695 25.8018 67.1001C26.4477 69.9372 26.1062 73.0502 24.4391 75.4854C24.1177 76.0018 23.6775 76.4363 23.1543 76.7537C22.4358 77.1467 21.5616 77.1782 20.7334 77.1205C19.8001 77.0541 18.8769 76.8884 17.9797 76.6261C18.6848 76.0094 19.1514 75.1704 19.2999 74.2521C18.4788 74.0005 17.5037 74.1612 16.8135 73.6686C15.8561 72.9873 16.1145 71.5146 16.833 70.6045C17.5515 69.6943 18.6027 69.0322 19.199 68.0505C20.8289 65.3148 18.1655 61.6393 19.6114 58.8127C19.9866 58.079 20.6148 57.4728 20.9139 56.7164C21.2678 55.8045 21.1174 54.7948 21.082 53.827C21.013 51.8186 21.4695 49.8265 22.4075 48.0429C22.9632 46.9843 23.7135 45.9781 24.7701 45.3509C25.8266 44.7238 27.2317 44.5334 28.3272 45.0959C28.812 45.3439 29.212 45.7213 29.7164 45.9379C30.6826 46.3554 31.9073 46.1301 32.7567 46.7328C33.6062 47.3354 33.2186 48.1093 34.2857 48.1303" fill="#965D7B"/>
<path opacity="0.1" d="M29.5238 78.0952C29.0772 78.3106 28.1876 80.2524 26.1681 81.655C24.1486 83.0575 29.5238 78.0952 29.5238 78.0952Z" fill="black"/>
<path opacity="0.1" d="M30.4762 74.2857C30.4762 74.2857 28.1179 79.2236 25.3503 79.9434C22.5827 80.6631 30.4762 74.2857 30.4762 74.2857Z" fill="black"/>
<path opacity="0.1" d="M35.2381 86.6667C35.2381 86.6667 34.0857 89.2892 34.3162 89.5122C34.5467 89.7353 35.2381 86.6667 35.2381 86.6667Z" fill="black"/>
<path opacity="0.1" d="M34.2857 86.6667C34.2857 86.6667 33.1333 89.2892 33.3638 89.5122C33.5943 89.7353 34.2857 86.6667 34.2857 86.6667Z" fill="black"/>
<path opacity="0.1" d="M32.381 86.6667C32.381 86.6667 31.2291 89.2892 31.4589 89.5122C31.6888 89.7353 32.381 86.6667 32.381 86.6667Z" fill="black"/>
<path opacity="0.1" d="M23.8095 87.619C23.8095 87.619 24.4246 90.3559 24.7162 90.4728C25.0077 90.5897 23.8095 87.619 23.8095 87.619Z" fill="black"/>
<path opacity="0.1" d="M26.6667 87.619C26.6667 87.619 27.2818 90.3579 27.5733 90.4729C27.8649 90.5879 26.6667 87.619 26.6667 87.619Z" fill="black"/>
<path opacity="0.1" d="M24.7619 87.619C24.7619 87.619 25.377 90.3559 25.6686 90.4728C25.9601 90.5897 24.7619 87.619 24.7619 87.619Z" fill="black"/>
<path opacity="0.1" d="M40 67.619C39.8406 67.6556 40.478 69.4098 38.6595 69.5195C36.8409 69.6291 40 67.619 40 67.619Z" fill="black"/>
<path opacity="0.1" d="M49.5238 71.4286C49.5238 71.4286 48.8917 72.9969 47.8555 73.3038C46.8193 73.6106 49.5238 71.4286 49.5238 71.4286Z" fill="black"/>
<path opacity="0.1" d="M45.1956 70.4762C45.1956 70.4762 46.6904 72.0088 44.6047 72.3459C42.519 72.6831 45.1956 70.4762 45.1956 70.4762Z" fill="black"/>
<path opacity="0.1" d="M35.2381 65.5118C35.2381 65.5118 31.978 64.1128 31.4704 65.1365C30.9629 66.1601 35.2381 65.5118 35.2381 65.5118Z" fill="black"/>
<path opacity="0.1" d="M30.4762 68.5714C30.0279 68.7868 29.1409 70.7286 27.1207 72.1312C25.1006 73.5337 30.4762 68.5714 30.4762 68.5714Z" fill="black"/>
<g opacity="0.1">
<path opacity="0.1" d="M29.6358 45.5627C29.169 45.366 28.7835 45.0404 28.3456 44.7932C28.5831 44.8473 28.8128 44.9292 29.0296 45.0369C29.4205 45.2319 29.7625 45.507 30.1389 45.7211C29.9667 45.6825 29.7984 45.6295 29.6358 45.5627Z" fill="black"/>
<path opacity="0.1" d="M35.1259 48.0644L35.0083 48.0557C34.9906 48.0067 34.9636 47.9612 34.9287 47.9216L35.1259 48.0644Z" fill="black"/>
<path opacity="0.1" d="M18.985 73.7846C18.9759 73.8386 18.9615 73.8926 18.9506 73.9483C18.348 73.8839 17.7418 73.849 17.2659 73.5235C17.8233 73.6314 18.4367 73.621 18.985 73.7846Z" fill="black"/>
<path opacity="0.1" d="M20.4507 76.6397C21.2958 76.6989 22.1915 76.6675 22.9261 76.2741C23.461 75.9585 23.9111 75.5261 24.2399 75.0119C25.9444 72.5868 26.2937 69.4845 25.6332 66.6556C25.4866 66.0271 25.2948 65.3603 25.5282 64.7562C25.8521 63.9241 26.8655 63.4906 27.3269 62.7176C27.9114 61.7357 27.4662 60.5362 27.2455 59.4343C26.9637 58.0148 27.0824 56.5485 27.5893 55.1882C27.9783 54.1436 28.7076 53.0991 29.8602 52.8083C30.0783 52.7813 30.287 52.7063 30.4701 52.589C30.9261 52.2025 30.4067 51.5444 30.3018 50.9769C30.1769 50.3119 30.7161 49.6764 31.3513 49.3474C31.9864 49.0184 32.7247 48.9017 33.4069 48.6632C33.843 48.5118 34.3117 48.094 34.1904 47.7388L34.3062 47.7475L34.1108 47.6048C34.1458 47.6443 34.1728 47.6897 34.1904 47.7388C33.2495 47.6605 33.5842 46.9328 32.7428 46.3461L32.6614 46.2956C32.9853 46.3572 33.293 46.4809 33.5661 46.6594C34.4058 47.2409 34.071 47.9704 35.0138 48.0522C35.1404 48.4004 34.6663 48.8251 34.2321 48.9766C33.5499 49.2151 32.8134 49.3248 32.1764 49.6608C31.5395 49.9968 31.0021 50.6252 31.1251 51.2903C31.2319 51.8561 31.7512 52.5089 31.2934 52.9024C31.1106 53.0205 30.9019 53.0961 30.6836 53.1234C29.5327 53.4055 28.8035 54.4587 28.4144 55.5015C27.9064 56.8628 27.787 58.3303 28.0688 59.7511C28.2896 60.8531 28.7347 62.0526 28.1502 63.0345C27.6888 63.8092 26.6755 64.2409 26.3534 65.0731C26.1181 65.6789 26.31 66.3439 26.4565 66.9724C27.117 69.7996 26.7678 72.9019 25.0632 75.3288C24.734 75.8431 24.2841 76.276 23.7495 76.5927C23.0148 76.9844 22.1209 77.0157 21.2741 76.9583C20.3198 76.8921 19.3758 76.7269 18.4584 76.4656C18.4928 76.4377 18.5218 76.4064 18.5543 76.3768C19.1789 76.5093 19.8127 76.5972 20.4507 76.6397Z" fill="black"/>
</g>
<path d="M141.627 11.4466C141.627 11.4466 126.988 10.6093 128.713 20.3534C128.713 20.3534 128.365 22.076 130.013 22.8572C130.013 22.8572 130.039 22.1354 131.516 22.3799C132.041 22.4634 132.574 22.4878 133.105 22.4525C133.824 22.4065 134.507 22.1386 135.051 21.6895C135.051 21.6895 139.166 20.0759 140.766 13.6861C140.766 13.6861 141.95 12.2938 141.903 11.9355L139.433 12.9363C139.433 12.9363 140.278 14.6308 139.606 16.0363C139.606 16.0363 139.526 12.9991 139.052 13.0635C138.954 13.0783 137.767 13.6498 137.767 13.6498C137.767 13.6498 139.22 16.5994 138.115 18.7431C138.115 18.7431 138.532 15.1097 137.306 13.8628L135.567 14.8273C135.567 14.8273 137.266 17.8744 136.115 20.3584C136.115 20.3584 136.41 16.5466 135.202 15.0635L133.627 16.2311C133.627 16.2311 135.24 19.2452 134.263 21.2997C134.263 21.2997 134.136 16.862 133.298 16.5268C133.298 16.5268 131.921 17.6829 131.71 18.1568C131.71 18.1568 132.802 20.3352 132.124 21.4864C132.124 21.4864 131.709 18.5284 131.368 18.5136C131.368 18.5136 129.994 20.4723 129.852 21.8167C129.852 21.8167 129.911 19.82 131.036 18.327C131.036 18.327 129.707 18.5433 128.932 19.3625C128.932 19.3625 129.146 17.9768 131.366 17.8563C131.366 17.8563 132.5 16.3699 132.804 16.2807C132.804 16.2807 130.587 16.104 129.243 16.6705C129.243 16.6705 130.427 15.3641 133.211 15.957L134.776 14.7514C134.776 14.7514 131.856 14.3715 130.62 14.791C130.62 14.791 132.044 13.6349 135.195 14.4772L136.889 13.5143C136.889 13.5143 134.4 13.0057 132.919 13.184C132.919 13.184 134.484 12.383 137.384 13.2517L138.601 12.7348C138.601 12.7348 136.779 12.3946 136.245 12.3417C135.711 12.2889 135.682 12.1485 135.682 12.1485C136.837 11.9646 138.023 12.0899 139.107 12.5102C139.107 12.5102 141.674 11.6018 141.627 11.4466Z" fill="#F8765E"/>
<path d="M126.549 6.67427C126.549 6.67427 120.279 6.32391 121.012 10.3851C121.012 10.3851 120.865 11.1026 121.57 11.4286C121.57 11.4286 121.581 11.1239 122.213 11.2306C122.439 11.2655 122.668 11.2758 122.896 11.261C123.201 11.2394 123.49 11.1278 123.721 10.9426C123.721 10.9426 125.485 10.2693 126.171 7.60655C126.171 7.60655 126.68 7.02616 126.666 6.87688L125.607 7.29427C125.607 7.29427 125.968 8.0011 125.685 8.58606C125.685 8.58606 125.65 7.32017 125.447 7.35063C125.404 7.35063 124.896 7.59437 124.896 7.59437C124.896 7.59437 125.518 8.82369 125.049 9.71637C125.049 9.71637 125.228 8.20218 124.701 7.68424L123.956 8.08488C123.956 8.08488 124.683 9.35534 124.19 10.3912C124.19 10.3912 124.317 8.80237 123.799 8.1839L123.124 8.66984C123.124 8.66984 123.807 9.92049 123.39 10.7797C123.39 10.7797 123.335 8.93033 122.977 8.79932C122.977 8.79932 122.386 9.27917 122.296 9.4772C122.296 9.4772 122.764 10.3912 122.474 10.865C122.474 10.865 122.296 9.63258 122.144 9.62801C122.144 9.62801 121.555 10.4445 121.494 10.999C121.522 10.4814 121.697 9.97971 122.002 9.54423C121.662 9.60334 121.348 9.75322 121.099 9.97533C121.099 9.97533 121.192 9.39799 122.147 9.34772C122.147 9.34772 122.634 8.72925 122.764 8.69117C122.764 8.69117 121.814 8.61805 121.236 8.85416C121.236 8.85416 121.745 8.30881 122.937 8.5495L123.606 8.0468C123.606 8.0468 122.353 7.89446 121.824 8.06355C121.824 8.06355 122.434 7.58066 123.784 7.93255L124.512 7.53039C124.512 7.53039 123.444 7.31864 122.809 7.39481C122.809 7.39481 123.479 7.0612 124.724 7.42375L125.242 7.20744C125.242 7.20744 124.462 7.06577 124.233 7.04444C124.003 7.02312 123.992 6.96371 123.992 6.96371C124.487 6.88763 124.996 6.94038 125.46 7.11604C125.46 7.11604 126.569 6.74282 126.549 6.67427Z" fill="#F8765E"/>
<path opacity="0.1" d="M184.762 125.762C187.392 125.762 189.524 125.314 189.524 124.762C189.524 124.21 187.392 123.762 184.762 123.762C182.132 123.762 180 124.21 180 124.762C180 125.314 182.132 125.762 184.762 125.762Z" fill="#F8765E"/>
<path opacity="0.1" d="M5.7143 139.095C8.34422 139.095 10.4762 138.647 10.4762 138.095C10.4762 137.543 8.34422 137.095 5.7143 137.095C3.08437 137.095 0.952393 137.543 0.952393 138.095C0.952393 138.647 3.08437 139.095 5.7143 139.095Z" fill="#F8765E"/>
<path opacity="0.1" d="M32.3809 140.048C35.0108 140.048 37.1428 139.6 37.1428 139.048C37.1428 138.495 35.0108 138.048 32.3809 138.048C29.751 138.048 27.619 138.495 27.619 139.048C27.619 139.6 29.751 140.048 32.3809 140.048Z" fill="#F8765E"/>
<path d="M174.762 135.238C178.707 135.238 181.905 134.599 181.905 133.81C181.905 133.021 178.707 132.381 174.762 132.381C170.817 132.381 167.619 133.021 167.619 133.81C167.619 134.599 170.817 135.238 174.762 135.238Z" fill="#F8765E"/>
<path d="M176.502 131.425C176.798 131.194 177.014 130.884 177.122 130.535C177.203 130.181 177.044 129.756 176.688 129.626C176.289 129.481 175.863 129.745 175.541 130.01C175.218 130.274 174.847 130.578 174.424 130.521C174.867 130.14 175.067 129.567 174.951 129.01C174.932 128.897 174.881 128.79 174.803 128.702C174.583 128.477 174.181 128.574 173.917 128.752C173.074 129.314 172.84 130.402 172.835 131.38C172.75 131.027 172.822 130.659 172.818 130.302C172.815 129.945 172.713 129.532 172.391 129.344C172.192 129.24 171.969 129.187 171.743 129.19C171.363 129.177 170.942 129.214 170.684 129.477C170.36 129.803 170.446 130.351 170.725 130.709C171.004 131.066 171.43 131.295 171.822 131.543C172.136 131.721 172.403 131.964 172.605 132.253C172.629 132.294 172.648 132.336 172.663 132.381H175.038C175.569 132.125 176.061 131.804 176.502 131.425Z" fill="#F8765E"/>
<path d="M8.33643 117.143C8.33643 117.143 9.28833 118.365 7.89776 120.207C6.50718 122.049 5.35762 123.611 5.8171 124.762C5.8171 124.762 7.91856 121.334 9.63164 121.286C11.3447 121.238 10.2177 119.204 8.33643 117.143Z" fill="#F8765E"/>
<path opacity="0.1" d="M8.30959 117.143C8.39396 117.26 8.46012 117.389 8.50599 117.526C10.1929 119.448 11.0925 121.242 9.47045 121.288C7.96062 121.329 6.14743 123.951 5.71429 124.612C5.72832 124.662 5.74586 124.713 5.76515 124.762C5.76515 124.762 7.89048 121.336 9.62301 121.288C11.3555 121.241 10.2122 119.203 8.30959 117.143Z" fill="black"/>
<path d="M9.63385 119.298C9.63385 119.686 9.58494 120 9.5238 120C9.46267 120 9.41376 119.693 9.41376 119.298C9.41376 118.902 9.47489 119.094 9.53603 119.094C9.59717 119.094 9.63385 118.904 9.63385 119.298Z" fill="#FFD037"/>
<path d="M10.2509 119.527C9.87915 119.862 9.55427 120.064 9.5258 119.981C9.49733 119.898 9.777 119.554 10.1488 119.219C10.5205 118.884 10.3749 119.128 10.4016 119.219C10.4284 119.311 10.6227 119.186 10.2509 119.527Z" fill="#FFD037"/>
<path d="M2.13845 117.143C2.13845 117.143 1.18674 118.365 2.57877 120.207C3.9708 122.049 5.11841 123.611 4.65902 124.762C4.65902 124.762 2.5597 121.334 0.845233 121.286C-0.869237 121.238 0.259297 119.204 2.13845 117.143Z" fill="#F8765E"/>
<path opacity="0.1" d="M2.16602 117.143C2.08246 117.261 2.01637 117.39 1.9697 117.526C0.283516 119.448 -0.613914 121.242 1.00567 121.288C2.51658 121.329 4.33598 123.951 4.7619 124.612C4.74613 124.662 4.73035 124.713 4.70932 124.762C4.70932 124.762 2.58669 121.336 0.853174 121.288C-0.880339 121.241 0.265988 119.203 2.16602 117.143Z" fill="black"/>
<path d="M0.841492 119.298C0.841492 119.686 0.890401 120 0.953285 120C1.01617 120 1.06333 119.693 1.06333 119.298C1.06333 118.902 1.00045 119.094 0.93931 119.094C0.878174 119.094 0.841492 118.904 0.841492 119.298Z" fill="#FFD037"/>
<path d="M0.228199 119.527C0.599325 119.862 0.92197 120.064 0.95039 119.981C0.978809 119.898 0.699629 119.554 0.328503 119.219C-0.0426228 118.884 0.10449 119.128 0.0760706 119.219C0.0476511 119.311 -0.147942 119.186 0.228199 119.527Z" fill="#FFD037"/>
<path d="M0.952393 124.215C0.952393 124.215 3.76687 124.138 4.61708 123.597C5.46729 123.056 8.94508 122.412 9.15763 123.287C9.37018 124.162 13.3885 127.595 10.2094 127.618C7.03028 127.641 2.82688 127.176 1.98034 126.714C1.13379 126.252 0.952393 124.215 0.952393 124.215Z" fill="#A8A8A8"/>
<path opacity="0.2" d="M10.2674 128.236C7.08843 128.262 2.88102 127.74 2.03404 127.221C1.38872 126.828 1.13206 125.414 1.04589 124.762H0.952393C0.952393 124.762 1.13572 127.039 1.9772 127.556C2.81869 128.072 7.0316 128.596 10.2105 128.571C11.1272 128.571 11.4462 128.236 11.4278 127.751C11.3068 128.047 10.9567 128.23 10.2674 128.236Z" fill="black"/>
<defs>
<linearGradient id="paint0_linear_4_867" x1="134.286" y1="130.468" x2="134.286" y2="44.7349" gradientUnits="userSpaceOnUse">
<stop stop-color="#808080" stop-opacity="0.25"/>
<stop offset="0.54" stop-color="#808080" stop-opacity="0.12"/>
<stop offset="1" stop-color="#808080" stop-opacity="0.1"/>
</linearGradient>
<linearGradient id="paint1_linear_4_867" x1="35.2302" y1="129.524" x2="35.2302" y2="44.7601" gradientUnits="userSpaceOnUse">
<stop stop-color="#808080" stop-opacity="0.25"/>
<stop offset="0.54" stop-color="#808080" stop-opacity="0.12"/>
<stop offset="1" stop-color="#808080" stop-opacity="0.1"/>
</linearGradient>
<linearGradient id="paint2_linear_4_867" x1="35.2381" y1="48.6312" x2="35.2381" y2="48.5117" gradientUnits="userSpaceOnUse">
<stop stop-color="#808080" stop-opacity="0.25"/>
<stop offset="0.54" stop-color="#808080" stop-opacity="0.12"/>
<stop offset="1" stop-color="#808080" stop-opacity="0.1"/>
</linearGradient>
<linearGradient id="paint3_linear_4_867" x1="34.2857" y1="47.7396" x2="34.2857" y2="47.5175" gradientUnits="userSpaceOnUse">
<stop stop-color="#808080" stop-opacity="0.25"/>
<stop offset="0.54" stop-color="#808080" stop-opacity="0.12"/>
<stop offset="1" stop-color="#808080" stop-opacity="0.1"/>
</linearGradient>
</defs>
</svg>
