<svg width="378" height="415" viewBox="0 0 378 415" fill="none" xmlns="http://www.w3.org/2000/svg">
<path d="M0 40C0 21.1438 0 11.7157 5.85786 5.85786C11.7157 0 21.1438 0 40 0H125C143.856 0 153.284 0 159.142 5.85786C165 11.7157 165 21.1438 165 40V209L71.22 326.083C41.5724 363.098 26.7486 381.605 13.3743 376.909C0 372.213 0 348.501 0 301.077V40Z" fill="#FDE8E1"/>
<path d="M213 40C213 21.1438 213 11.7157 218.858 5.85786C224.716 0 234.144 0 253 0H338C356.856 0 366.284 0 372.142 5.85786C378 11.7157 378 21.1438 378 40V209L284.22 326.083C254.572 363.098 239.749 381.605 226.374 376.909C213 372.213 213 348.501 213 301.077V40Z" fill="#FDE8E1"/>
</svg>
